<svg width="78" height="76" viewBox="0 0 78 76" fill="none" xmlns="http://www.w3.org/2000/svg">
<path d="M38.9226 4.15015C16.0477 4.15015 9.72134 12.4244 8.7199 28.9728C8.5353 32.0233 11.045 34.5052 14.1011 34.5052H63.7441C66.8002 34.5052 69.3099 32.0233 69.1253 28.9728C68.1239 12.4244 61.7975 4.15015 38.9226 4.15015Z" fill="#D7E0FF"/>
<path fill-rule="evenodd" clip-rule="evenodd" d="M18.4055 13.4313C15.0614 16.4612 13.3425 21.2937 12.8627 29.2235C12.8333 29.7086 13.2525 30.355 14.1013 30.355H63.7443C64.593 30.355 65.0123 29.7086 64.9829 29.2235C64.503 21.2937 62.7841 16.4612 59.4401 13.4313C56.032 10.3435 50.0291 8.3003 38.9228 8.3003C27.8164 8.3003 21.8135 10.3435 18.4055 13.4313ZM12.8324 7.28029C18.5566 2.09392 27.1543 0 38.9228 0C50.6913 0 59.289 2.09392 65.0132 7.2803C70.8015 12.5247 72.7465 20.1035 73.2681 28.7221C73.6079 34.3381 69.0077 38.6553 63.7443 38.6553H14.1013C8.83788 38.6553 4.23768 34.3381 4.57753 28.7221C5.09909 20.1035 7.0441 12.5247 12.8324 7.28029Z" fill="#4147D5"/>
<path d="M16.1569 71.8496C10.0859 71.8496 8.56812 65.1041 8.56812 61.7313V58.1883C8.56812 55.1322 11.0456 52.6548 14.1016 52.6548H28.8048C41.4527 52.6548 44.8255 59.8219 46.5119 61.5083L56.6302 52.6548H63.7446C66.8007 52.6548 69.2782 55.1322 69.2782 58.1883V61.7313C69.2782 69.826 64.219 71.8496 61.6894 71.8496H16.1569Z" fill="#D7E0FF"/>
<path fill-rule="evenodd" clip-rule="evenodd" d="M14.1016 56.8049C13.3376 56.8049 12.7183 57.4243 12.7183 58.1883V61.7313C12.7183 62.9524 13.0182 64.751 13.7376 66.0833C14.3599 67.2358 15.0402 67.6995 16.1569 67.6995H61.6894C61.9958 67.6995 62.828 67.5332 63.5583 66.8321C64.1835 66.2319 65.128 64.8595 65.128 61.7313V58.1883C65.128 57.4243 64.5087 56.8049 63.7446 56.8049H58.1896L49.2448 64.6316C47.6005 66.0704 45.1223 65.9879 43.5773 64.4429C43.1563 64.0219 42.7666 63.5216 42.5145 63.1978L42.5113 63.1938C42.453 63.1189 42.3962 63.0456 42.34 62.9733C42.1017 62.6662 41.8767 62.3762 41.6127 62.0567C40.9868 61.2989 40.239 60.4991 39.2577 59.7534C37.3767 58.3238 34.2625 56.8049 28.8048 56.8049H14.1016ZM4.41797 58.1883C4.41797 52.8402 8.7535 48.5046 14.1016 48.5046H28.8048C35.995 48.5046 40.8912 50.5694 44.2801 53.145C45.3593 53.9652 46.2462 54.8072 46.9756 55.588L53.8974 49.5315C54.6539 48.8695 55.625 48.5046 56.6302 48.5046H63.7446C69.0928 48.5046 73.4283 52.8402 73.4283 58.1883V61.7313C73.4283 66.6978 71.8433 70.3845 69.3065 72.8198C66.8748 75.1543 63.9126 75.9998 61.6894 75.9998H16.1569C11.2025 75.9998 8.08843 73.0907 6.43413 70.0272C4.87693 67.1435 4.41797 63.883 4.41797 61.7313V58.1883Z" fill="#4147D5"/>
<path d="M14.1011 34.5046H63.7441C69.6456 34.5046 73.5071 36.6065 73.5071 43.5328C73.5071 50.4355 69.7033 52.654 63.7441 52.654H56.6297L46.5113 61.5076C46.2627 61.259 45.9774 60.8912 45.6312 60.4449C43.6289 57.8637 39.5875 52.654 28.8042 52.654H14.1011C8.14166 52.654 4.33801 50.436 4.33801 43.5328C4.33801 36.5018 8.15962 34.5046 14.1011 34.5046Z" fill="white"/>
<path fill-rule="evenodd" clip-rule="evenodd" d="M9.60693 39.6045C9.22111 39.9176 8.48828 40.7496 8.48828 43.5328C8.48828 46.2338 9.2084 47.1317 9.64642 47.4978C10.2413 47.995 11.5022 48.5039 14.1012 48.5039H28.8043C34.9089 48.5039 39.3868 49.9917 42.7051 52.059C44.5267 53.1938 45.9192 54.4579 46.9753 55.5871L53.8969 49.5307C54.6534 48.8688 55.6245 48.5039 56.6298 48.5039H63.7442C66.3429 48.5039 67.6039 47.9949 68.1989 47.4976C68.637 47.1314 69.3571 46.2335 69.3571 43.5328C69.3571 40.8351 68.6325 39.9779 68.2132 39.6354C67.6145 39.1462 66.3456 38.6548 63.7442 38.6548H14.1012C11.4366 38.6548 10.1845 39.1358 9.60693 39.6045ZM4.37631 33.1597C7.19491 30.8721 10.8243 30.3545 14.1012 30.3545H63.7442C67.0443 30.3545 70.657 30.914 73.4644 33.2073C76.4512 35.6473 77.6574 39.3042 77.6574 43.5328C77.6574 47.7349 76.4756 51.3975 73.522 53.8663C70.7252 56.2039 67.1047 56.8042 63.7442 56.8042H58.1891L49.2443 64.6309C47.6 66.0697 45.1218 65.9872 43.5768 64.4422C43.1353 64.0006 42.7011 63.4396 42.4173 63.0728C42.3946 63.0435 42.3729 63.0154 42.3521 62.9887C41.3889 61.747 40.2556 60.3122 38.3162 59.104C36.4175 57.9212 33.4831 56.8042 28.8043 56.8042H14.1012C10.7408 56.8042 7.12015 56.2041 4.32335 53.8664C1.3697 51.3977 0.187988 47.7349 0.187988 43.5328C0.187988 39.285 1.36596 35.6029 4.37631 33.1597Z" fill="#4147D5"/>
</svg>
