<svg width="82" height="76" viewBox="0 0 82 76" fill="none" xmlns="http://www.w3.org/2000/svg">
<path d="M10.4763 65.3415C10.9082 67.9201 13.0887 69.8141 15.6932 70.0417C23.4082 70.716 31.4829 71.6233 39.7974 71.6233C48.1878 71.6233 56.2739 71.0523 64.0851 70.1859C66.6038 69.9065 68.6391 68.0007 69.0477 65.4997C70.0128 59.591 70.659 53.4691 70.659 47.1382C70.659 40.7846 70.0732 34.57 69.0743 28.6726C68.6589 26.2206 66.655 24.3658 64.1842 24.0839C56.3133 23.1858 48.23 22.6531 39.7974 22.6531C31.3557 22.6531 23.1262 23.1535 15.3239 24.0719C12.8951 24.3578 10.9244 26.1743 10.5046 28.5835C9.47445 34.4954 8.93579 40.7566 8.93579 47.1382C8.93579 53.4146 9.49408 59.4764 10.4763 65.3415Z" fill="#D7E0FF"/>
<path fill-rule="evenodd" clip-rule="evenodd" d="M39.7975 27.0296C31.527 27.0296 23.4683 27.52 15.8356 28.4184C15.2745 28.4844 14.8946 28.886 14.8164 29.3346C13.831 34.9896 13.3126 40.9991 13.3126 47.138C13.3126 53.1531 13.8475 58.9726 14.793 64.6184C14.8736 65.1 15.3237 65.6158 16.0743 65.6814C17.4812 65.8044 18.8861 65.9335 20.2909 66.0625C26.7337 66.6545 33.1748 67.2463 39.7975 67.2463C47.9897 67.2463 55.9102 66.6888 63.6026 65.8356C64.1998 65.7693 64.6411 65.327 64.7282 64.794C65.6663 59.0507 66.2823 53.1725 66.2823 47.138C66.2823 41.0513 65.7209 35.0818 64.759 29.4033C64.6773 28.9209 64.271 28.4987 63.688 28.4322C55.9604 27.5504 48.044 27.0296 39.7975 27.0296ZM14.8123 19.7249C22.7842 18.7866 31.1846 18.2761 39.7975 18.2761C48.4162 18.2761 56.6663 18.8207 64.6804 19.7351C69.0391 20.2325 72.6406 23.5199 73.3896 27.9414C74.4256 34.0577 75.0358 40.5176 75.0358 47.138C75.0358 53.7652 74.3593 60.131 73.3672 66.2051C72.6372 70.6741 69.0078 74.0432 64.5676 74.5357C56.6377 75.4153 48.386 75.9998 39.7975 75.9998C32.7342 75.9998 25.814 75.3625 19.3574 74.768C17.9871 74.6418 16.6377 74.5175 15.3122 74.4017C10.8538 74.012 6.94273 70.7397 6.15973 66.0642C5.14075 59.9797 4.55908 53.6756 4.55908 47.138C4.55908 40.5136 5.11794 34.0007 6.19285 27.8319C6.95429 23.4621 10.5158 20.2307 14.8123 19.7249Z" fill="#4147D5"/>
<path fill-rule="evenodd" clip-rule="evenodd" d="M27.0042 42.9539C27.0042 40.5367 28.9637 38.5771 31.3809 38.5771H48.2145C50.6317 38.5771 52.5912 40.5367 52.5912 42.9539C52.5912 45.3711 50.6317 47.3306 48.2145 47.3306H31.3809C28.9637 47.3306 27.0042 45.3711 27.0042 42.9539Z" fill="#4147D5"/>
<path d="M5.68231 22.6534C6.44268 24.7245 8.54732 25.9023 10.7533 25.8645C30.4521 25.5271 50.4168 25.8723 70.8936 25.9275C73.1264 25.9335 75.2187 24.6796 75.9813 22.581C76.803 20.3196 77.3224 17.9919 77.3224 15.5991C77.3224 13.0929 76.8095 10.6338 75.914 8.27396C75.1858 6.35493 73.2891 5.1987 71.2387 5.10358C61.4424 4.64913 51.3763 4.37671 40.8495 4.37671C30.3051 4.37671 20.0407 4.63292 10.3565 5.10075C8.36239 5.19707 6.50687 6.29799 5.7855 8.15949C4.85854 10.5515 4.37671 13.0545 4.37671 15.5991C4.37671 18.0185 4.84339 20.3683 5.68231 22.6534Z" fill="#D7E0FF"/>
<path fill-rule="evenodd" clip-rule="evenodd" d="M40.8496 8.75348C30.375 8.75348 20.181 9.00802 10.5677 9.47242C10.2939 9.48564 10.0879 9.56737 9.97196 9.64244C9.91797 9.67738 9.89123 9.70545 9.88079 9.71793C9.87197 9.72848 9.86925 9.73407 9.86656 9.74099C9.12843 11.6458 8.75348 13.6134 8.75348 15.5991C8.75348 17.4443 9.10763 19.2838 9.79095 21.145C9.80099 21.1724 9.82663 21.2349 9.95946 21.3161C10.1104 21.4085 10.3625 21.4939 10.6784 21.4885C24.4957 21.2518 38.4735 21.3498 52.6042 21.4489C58.6766 21.4915 64.7771 21.5343 70.9054 21.5508C71.2094 21.5516 71.4619 21.4645 71.6276 21.3583C71.7799 21.2607 71.8392 21.1646 71.8677 21.0863C72.5649 19.1677 72.9457 17.3549 72.9457 15.5991C72.9457 13.6954 72.5566 11.7626 71.822 9.82683C71.8113 9.79862 71.7836 9.73822 71.6655 9.66049C71.5338 9.57377 71.3157 9.48863 71.0359 9.47565C61.2981 9.02391 51.3002 8.75348 40.8496 8.75348ZM10.1453 0.729134C19.9004 0.257889 30.2352 0 40.8496 0C51.4526 0 61.5869 0.27441 71.4416 0.731577C74.9097 0.892466 78.5513 2.88776 80.006 6.72115C81.0625 9.50508 81.6991 12.4904 81.6991 15.5991C81.6991 18.629 81.0412 21.4716 80.0949 24.0758C78.6076 28.1687 74.6668 30.3144 70.8818 30.3043C64.6682 30.2875 58.5201 30.2444 52.4234 30.2016C38.3427 30.1028 24.5358 30.0059 10.8283 30.2407C7.14502 30.3038 3.09964 28.3182 1.57373 24.1618C0.579206 21.4528 0 18.5927 0 15.5991C0 12.4955 0.588723 9.45737 1.7045 6.57806C3.17239 2.79013 6.78577 0.891426 10.1453 0.729134Z" fill="#4147D5"/>
</svg>
