<svg width="81" height="76" viewBox="0 0 81 76" fill="none" xmlns="http://www.w3.org/2000/svg">
<path d="M5.5835 55.5285C6.53394 64.0079 13.426 70.7404 21.9486 71.1508C27.8393 71.4345 33.8569 71.582 40.3879 71.582C46.9189 71.582 52.9364 71.4345 58.8271 71.1508C67.3497 70.7404 74.2418 64.0079 75.1923 55.5285C75.8323 49.8183 76.3574 43.9639 76.3574 38.0002C76.3574 32.0365 75.8323 26.1822 75.1923 20.472C74.2418 11.9926 67.3497 5.26009 58.8271 4.84962C52.9364 4.56591 46.9189 4.41846 40.3879 4.41846C33.8569 4.41846 27.8394 4.56591 21.9486 4.84962C13.426 5.26009 6.53394 11.9926 5.5835 20.472C4.94345 26.1822 4.41833 32.0365 4.41833 38.0002C4.41833 43.9639 4.94345 49.8183 5.5835 55.5285Z" fill="white"/>
<path fill-rule="evenodd" clip-rule="evenodd" d="M22.7352 40.3889L22.7352 10.4472C22.7352 5.56282 24.7133 1.60327 27.1534 1.60327C29.5935 1.60327 31.5717 5.56282 31.5717 10.4472L31.5717 40.3889C31.5717 45.2732 29.5935 49.2328 27.1534 49.2328C24.7133 49.2328 22.7352 45.2732 22.7352 40.3889Z" fill="#4147D5"/>
<path fill-rule="evenodd" clip-rule="evenodd" d="M49.1646 40.3889L49.1646 10.4472C49.1646 5.56282 51.1427 1.60327 53.5829 1.60327C56.023 1.60327 58.0011 5.56282 58.0011 10.4472L58.0011 40.3889C58.0011 45.2732 56.023 49.2328 53.5829 49.2328C51.1427 49.2328 49.1646 45.2732 49.1646 40.3889Z" fill="#4147D5"/>
<path d="M73.5264 64.2062L40.3877 72.491L7.24898 64.2062L8.17932 30.2474L39.9969 26.9252L73.5264 30.2474L73.5264 64.2062Z" fill="#D7E0FF"/>
<path fill-rule="evenodd" clip-rule="evenodd" d="M40.3878 8.83647C33.9252 8.83647 27.9786 8.98233 22.1611 9.26252C15.8966 9.56423 10.6934 14.5472 9.97414 20.9639C9.34009 26.6206 8.83647 32.2831 8.83647 38C8.83647 43.7169 9.34009 49.3794 9.97414 55.0361C10.6934 61.4528 15.8966 66.4358 22.1611 66.7375C27.9786 67.0177 33.9252 67.1635 40.3878 67.1635C46.8503 67.1635 52.7969 67.0177 58.6145 66.7375C64.8789 66.4358 70.0822 61.4528 70.8014 55.0361C71.4355 49.3794 71.9391 43.7169 71.9391 38C71.9391 32.2831 71.4355 26.6206 70.8014 20.9639C70.0822 14.5472 64.8789 9.56423 58.6145 9.26252C52.797 8.98234 46.8503 8.83647 40.3878 8.83647ZM21.736 0.436276C27.6999 0.149042 33.7883 0 40.3878 0C46.9872 0 53.0757 0.149042 59.0396 0.436277C69.8203 0.955504 78.4013 9.43753 79.5829 19.9796C80.2289 25.7433 80.7756 31.7895 80.7756 38C80.7756 44.2105 80.2289 50.2567 79.5829 56.0204C78.4013 66.5625 69.8203 75.0445 59.0396 75.5637C53.0757 75.851 46.9872 76 40.3878 76C33.7883 76 27.6999 75.851 21.736 75.5637C10.9552 75.0445 2.3743 66.5625 1.19266 56.0204C0.546615 50.2567 0 44.2105 0 38C0 31.7895 0.546613 25.7433 1.19266 19.9796C2.3743 9.43753 10.9552 0.955503 21.736 0.436276Z" fill="#4147D5"/>
<path fill-rule="evenodd" clip-rule="evenodd" d="M74.9909 34.6124H6.14001V25.7759H74.9909V34.6124Z" fill="#4147D5"/>
</svg>
