<?xml version="1.0" encoding="utf-8"?>
<!-- Generator: Adobe Illustrator 26.3.1, SVG Export Plug-In . SVG Version: 6.00 Build 0)  -->
<svg version="1.1" id="Layer_1" xmlns="http://www.w3.org/2000/svg" xmlns:xlink="http://www.w3.org/1999/xlink" x="0px" y="0px"
	 viewBox="0 0 93 75" style="enable-background:new 0 0 93 75;" xml:space="preserve">
<style type="text/css">
	.st0{fill:#FFFFFF;}
	.st1{fill:#4147D5;}
</style>
<g>
	<path class="st0" d="M76.6,10.7c-0.5-0.8-1.2-1.3-1.9-1.6C69.5,6.8,64,5,58.2,4.1c-1.7-0.3-3.5,0.5-4.4,2.1
		c-0.3,0.5-0.6,1.1-0.9,1.6c-4.3-0.4-8.6-0.4-12.8,0c-0.3-0.6-0.6-1.1-0.9-1.6l0,0c-0.9-1.6-2.7-2.3-4.3-2.1c0,0,0,0-0.1,0
		c-5.8,1-11.4,2.7-16.6,5.1c-0.6,0.3-1.3,0.8-1.8,1.5C5.8,26.2,2.9,41.5,4.3,56.6c0.1,1.3,0.8,2.3,1.6,3c0,0,0.1,0,0.1,0.1
		c7,5.1,13.8,8.2,20.4,10.2l0,0c1.7,0.5,3.5-0.1,4.5-1.5c0,0,0.1-0.1,0.1-0.1c1.5-2,2.8-4.1,4-6.3c7.5,1.8,15.2,1.8,22.8,0
		c1.2,2.2,2.5,4.3,3.9,6.2c1.1,1.5,3,2.1,4.6,1.6l0,0c6.7-2,13.5-5.1,20.4-10.2c0.9-0.7,1.6-1.8,1.7-3C90.3,39.2,85.8,24,76.6,10.7z
		 M62.2,39.8L62.2,39.8c0,2.5-1.6,3.7-2.9,3.7c-1.2,0-2.9-1.3-2.9-3.7c0-2.4,1.7-3.7,2.9-3.7C60.6,36.2,62.3,37.5,62.2,39.8z
		 M33.7,36.2c1.3,0,3,1.3,2.9,3.6v0.1c0,2.4-1.7,3.7-2.9,3.7c-1.2,0-2.9-1.3-2.9-3.7C30.8,37.5,32.5,36.2,33.7,36.2z"/>
	<path class="st1" d="M38.5,34.3c-1.3-1.3-3-2.1-4.7-2.1c-3.3,0-6.9,2.9-6.9,7.7s3.6,7.7,6.9,7.7c3.3,0,6.9-2.9,6.9-7.7c0,0,0,0,0,0
		C40.7,37.7,39.9,35.7,38.5,34.3z M36.7,39.9c0,2.4-1.7,3.7-2.9,3.7c-1.2,0-2.9-1.3-2.9-3.7c0-2.4,1.7-3.7,2.9-3.7
		C35,36.2,36.7,37.5,36.7,39.9L36.7,39.9z M64.1,34.3c-1.3-1.3-3-2.1-4.7-2.1c-3.3,0-6.9,2.9-6.9,7.7s3.6,7.7,6.9,7.7
		c3.4,0,6.9-2.9,6.9-7.7v0C66.3,37.7,65.5,35.7,64.1,34.3z M62.2,39.9c0,2.4-1.6,3.7-2.9,3.7c-1.2,0-2.9-1.3-2.9-3.7
		c0-2.4,1.7-3.7,2.9-3.7C60.6,36.2,62.3,37.5,62.2,39.9L62.2,39.9z M64.1,34.3c-1.3-1.3-3-2.1-4.7-2.1c-3.3,0-6.9,2.9-6.9,7.7
		s3.6,7.7,6.9,7.7c3.4,0,6.9-2.9,6.9-7.7v0C66.3,37.7,65.5,35.7,64.1,34.3z M62.2,39.9c0,2.4-1.6,3.7-2.9,3.7
		c-1.2,0-2.9-1.3-2.9-3.7c0-2.4,1.7-3.7,2.9-3.7C60.6,36.2,62.3,37.5,62.2,39.9L62.2,39.9z M33.7,32.2c-3.3,0-6.9,2.9-6.9,7.7
		s3.6,7.7,6.9,7.7c3.3,0,6.9-2.9,6.9-7.7c0,0,0,0,0,0c0-2.2-0.7-4.2-2.2-5.6C37.2,33,35.5,32.2,33.7,32.2z M36.7,39.9
		c0,2.4-1.7,3.7-2.9,3.7c-1.2,0-2.9-1.3-2.9-3.7c0-2.4,1.7-3.7,2.9-3.7C35,36.2,36.7,37.5,36.7,39.9L36.7,39.9z M80,8.5
		c-0.9-1.3-2.1-2.4-3.6-3c-5.6-2.5-11.5-4.3-17.5-5.3c-3.2-0.5-6.4,0.8-8.2,3.4c-2.8-0.2-5.6-0.2-8.4,0c-1.8-2.6-4.8-3.9-8-3.5
		c0,0-0.1,0-0.1,0c-6.1,1-12,2.8-17.6,5.4c-1.4,0.6-2.7,1.7-3.5,2.9C2.8,23.5-1.3,39.4,0.3,56.9c0.2,2.3,1.4,4.4,3.2,5.8l0.2,0.1
		c6.7,4.8,13.7,8.4,21.7,10.8c0.8,0.2,1.6,0.3,2.4,0.3c2.5,0,4.9-1.1,6.5-3.1l0.2-0.2c0,0,0,0,0,0c1-1.4,1.9-2.8,2.8-4.2
		c6.2,1.1,12.5,1.1,18.7,0c0.8,1.4,1.8,2.8,2.7,4.1c2,2.8,5.7,4.1,9.1,3.1c7.9-2.4,14.9-5.9,21.6-10.8c0,0,0,0,0,0
		c1.9-1.4,3.1-3.5,3.3-5.8C94.3,39.5,90.1,23.2,80,8.5z M84.7,56.2c0,0.1-0.1,0.2-0.1,0.2c0,0,0,0,0,0c-5.9,4.3-12.2,7.4-19.2,9.6
		c0,0-0.2,0-0.3-0.1c-1.4-1.9-2.6-3.8-3.6-5.8c-0.9-1.6-2.7-2.4-4.4-2c-6.9,1.6-14,1.6-20.9,0c-1.8-0.4-3.6,0.4-4.5,2
		c-1,2-2.3,3.9-3.7,5.8c0,0-0.1,0.1-0.3,0.1c-7-2.1-13.3-5.3-19.2-9.6c0,0-0.1-0.1-0.1-0.2c-1.5-15.6,2.2-29.8,11.4-43.3
		c0,0,0.1-0.1,0.1-0.1c5-2.3,10.3-3.9,15.7-4.8c0,0,0.2,0,0.2,0.1c0.3,0.5,0.5,1,0.8,1.5c0.8,1.5,2.3,2.3,4,2.1c4-0.4,8-0.4,12,0
		c1.6,0.2,3.2-0.7,4-2.2c0.2-0.5,0.5-1,0.8-1.4C57.3,8,57.5,8,57.5,8c5.4,0.9,10.6,2.5,15.6,4.8c0,0,0,0,0.1,0c0,0,0,0,0,0
		c0,0,0,0,0.1,0.1c0,0,0,0.1,0.1,0.1C82.5,26.3,86.2,40.5,84.7,56.2z M59.3,32.2c-3.3,0-6.9,2.9-6.9,7.7s3.6,7.7,6.9,7.7
		c3.4,0,6.9-2.9,6.9-7.7v0c0-2.1-0.8-4.1-2.2-5.6C62.8,33,61,32.2,59.3,32.2z M62.2,39.9c0,2.4-1.6,3.7-2.9,3.7
		c-1.2,0-2.9-1.3-2.9-3.7c0-2.4,1.7-3.7,2.9-3.7C60.6,36.2,62.3,37.5,62.2,39.9L62.2,39.9z M33.7,32.2c-3.3,0-6.9,2.9-6.9,7.7
		s3.6,7.7,6.9,7.7c3.3,0,6.9-2.9,6.9-7.7c0,0,0,0,0,0c0-2.2-0.7-4.2-2.2-5.6C37.2,33,35.5,32.2,33.7,32.2z M36.7,39.9
		c0,2.4-1.7,3.7-2.9,3.7c-1.2,0-2.9-1.3-2.9-3.7c0-2.4,1.7-3.7,2.9-3.7C35,36.2,36.7,37.5,36.7,39.9L36.7,39.9z M38.5,34.3
		c-1.3-1.3-3-2.1-4.7-2.1c-3.3,0-6.9,2.9-6.9,7.7s3.6,7.7,6.9,7.7c3.3,0,6.9-2.9,6.9-7.7c0,0,0,0,0,0C40.7,37.7,39.9,35.7,38.5,34.3
		z M36.7,39.9c0,2.4-1.7,3.7-2.9,3.7c-1.2,0-2.9-1.3-2.9-3.7c0-2.4,1.7-3.7,2.9-3.7C35,36.2,36.7,37.5,36.7,39.9L36.7,39.9z
		 M64.1,34.3c-1.3-1.3-3-2.1-4.7-2.1c-3.3,0-6.9,2.9-6.9,7.7s3.6,7.7,6.9,7.7c3.4,0,6.9-2.9,6.9-7.7v0
		C66.3,37.7,65.5,35.7,64.1,34.3z M62.2,39.9c0,2.4-1.6,3.7-2.9,3.7c-1.2,0-2.9-1.3-2.9-3.7c0-2.4,1.7-3.7,2.9-3.7
		C60.6,36.2,62.3,37.5,62.2,39.9L62.2,39.9z M64.1,34.3c-1.3-1.3-3-2.1-4.7-2.1c-3.3,0-6.9,2.9-6.9,7.7s3.6,7.7,6.9,7.7
		c3.4,0,6.9-2.9,6.9-7.7v0C66.3,37.7,65.5,35.7,64.1,34.3z M62.2,39.9c0,2.4-1.6,3.7-2.9,3.7c-1.2,0-2.9-1.3-2.9-3.7
		c0-2.4,1.7-3.7,2.9-3.7C60.6,36.2,62.3,37.5,62.2,39.9L62.2,39.9z M38.5,34.3c-1.3-1.3-3-2.1-4.7-2.1c-3.3,0-6.9,2.9-6.9,7.7
		s3.6,7.7,6.9,7.7c3.3,0,6.9-2.9,6.9-7.7c0,0,0,0,0,0C40.7,37.7,39.9,35.7,38.5,34.3z M36.7,39.9c0,2.4-1.7,3.7-2.9,3.7
		c-1.2,0-2.9-1.3-2.9-3.7c0-2.4,1.7-3.7,2.9-3.7C35,36.2,36.7,37.5,36.7,39.9L36.7,39.9z"/>
	<rect x="30" y="36.2" class="st1" width="7.3" height="7.3"/>
	<rect x="55.7" y="36.2" class="st1" width="7.3" height="7.3"/>
</g>
</svg>
