<svg width="74" height="76" viewBox="0 0 74 76" fill="none" xmlns="http://www.w3.org/2000/svg">
<path d="M53.4845 4.2117C40.3937 11.7625 17.9041 27.6509 6.75005 36.7935C5.06693 38.1731 3.84417 40.0995 4.14235 42.2541C4.34179 43.6951 4.85348 45.5157 6.01914 47.5328C7.1848 49.5498 8.50714 50.9028 9.65659 51.7959C11.3752 53.1312 13.6565 53.0364 15.6939 52.27C29.1963 47.1908 54.2139 35.6771 67.3048 28.1263C67.3048 28.1263 58.8472 29.8554 53.302 20.26C47.7568 10.6646 53.4845 4.2117 53.4845 4.2117Z" fill="#D7E0FF"/>
<path fill-rule="evenodd" clip-rule="evenodd" d="M46.8241 13.1009C34.1747 21.2232 18.1489 32.7423 9.34724 39.9568C8.83231 40.3788 8.50732 40.791 8.33901 41.1155C8.18668 41.4093 8.18279 41.5809 8.19849 41.6943C8.33033 42.647 8.68108 43.9579 9.56526 45.4879C10.4494 47.0179 11.4104 47.9768 12.1703 48.5672C12.2608 48.6375 12.4115 48.7199 12.7423 48.735C13.1078 48.7517 13.6276 48.6766 14.2509 48.4421C24.9056 44.4341 42.9039 36.3282 56.2694 29.4451C53.9583 27.9129 51.679 25.6341 49.7557 22.3061C47.8324 18.978 46.9967 15.8666 46.8241 13.1009ZM56.5544 6.91948L56.5601 6.91299L56.5701 6.90158L56.5844 6.88502C56.5724 6.89887 56.5666 6.90575 56.5544 6.91948ZM66.5423 24.1075C68.4903 23.7383 70.4276 24.818 71.1331 26.6753C71.8457 28.5512 71.0914 30.6665 69.3521 31.6697C56.0406 39.3477 30.8164 50.9532 17.1368 56.0991C14.436 57.115 10.4544 57.5989 7.14268 55.0258C5.60366 53.83 3.91997 52.0829 2.47283 49.5788C1.02569 47.0747 0.353058 44.7444 0.0860276 42.815C-0.488586 38.6631 1.92162 35.4601 4.15266 33.6314C15.4532 24.3688 38.1255 8.34751 51.437 0.669442C53.1763 -0.333766 55.3871 0.0712671 56.6569 1.62575C57.9141 3.16479 57.8783 5.38425 56.5844 6.88502C56.5759 6.8956 56.5595 6.91671 56.531 6.95484C56.4609 7.04876 56.3391 7.22097 56.1936 7.46483C55.9004 7.95644 55.5286 8.70904 55.2745 9.67651C54.7943 11.5045 54.644 14.4011 56.8481 18.2151C59.0523 22.0292 61.6384 23.3474 63.463 23.846C64.4288 24.1099 65.267 24.1645 65.8398 24.1566C66.124 24.1526 66.3341 24.1334 66.4506 24.1197C66.4979 24.1141 66.5289 24.1095 66.5423 24.1075ZM66.4884 24.118C66.5064 24.1144 66.5244 24.1109 66.5423 24.1075L66.5163 24.1125L66.5014 24.1154L66.4884 24.118Z" fill="#4147D5"/>
<path d="M53.302 20.26C47.7568 10.6646 53.4845 4.2117 53.4845 4.2117C53.4845 4.2117 61.9423 2.48255 67.4875 12.0779C73.0327 21.6733 67.3048 28.1263 67.3048 28.1263C67.3048 28.1263 58.8472 29.8554 53.302 20.26Z" fill="white"/>
<path fill-rule="evenodd" clip-rule="evenodd" d="M52.6636 0.204427L53.4845 4.2117L50.4209 1.49805C51.0087 0.835802 51.7956 0.381885 52.6636 0.204427ZM67.3048 28.1263L68.1258 32.1347C68.9938 31.9572 69.7808 31.5033 70.3686 30.8411L67.3048 28.1263ZM55.7985 8.21625C55.6098 8.62436 55.4222 9.11413 55.2745 9.67651C54.7943 11.5045 54.644 14.4011 56.8481 18.2151C59.0523 22.0292 61.6384 23.3474 63.463 23.846C64.0244 23.9994 64.5428 24.0821 64.991 24.1229C65.1797 23.7148 65.3671 23.225 65.5148 22.6626C65.995 20.8346 66.1453 17.938 63.9412 14.124C61.737 10.3099 59.1509 8.99168 57.3263 8.49311C56.7649 8.33972 56.2466 8.25704 55.7985 8.21625ZM50.4209 1.49805C50.4225 1.49617 50.4208 1.49748 53.4845 4.2117C52.6636 0.203854 52.6612 0.204927 52.6636 0.204427L52.6736 0.202402L52.6844 0.200233L52.7085 0.195489L52.7665 0.184508C52.8096 0.176581 52.8613 0.167502 52.9213 0.157717C53.0412 0.138159 53.1948 0.115707 53.379 0.0939938C53.7467 0.050646 54.2406 0.00975027 54.836 0.00150492C56.0223 -0.0149226 57.645 0.0978729 59.4868 0.601137C63.2772 1.63684 67.6925 4.2517 71.0336 10.0331C74.3747 15.8144 74.4337 20.942 73.4363 24.7393C72.9516 26.5845 72.2381 28.0448 71.6307 29.063C71.3258 29.574 71.0434 29.9809 70.822 30.2774C70.7111 30.4259 70.6148 30.5475 70.5379 30.6415C70.4994 30.6885 70.4657 30.7287 70.4373 30.762L70.3988 30.8067L70.3826 30.8252L70.3753 30.8335C70.3737 30.8353 70.3686 30.8405 67.3048 28.1263C68.1258 32.1341 68.1283 32.1342 68.1258 32.1347L68.1159 32.1367L68.1051 32.1389L68.081 32.1436L68.0229 32.1546C67.9799 32.1625 67.9282 32.1716 67.8682 32.1814C67.7482 32.201 67.5947 32.2234 67.4105 32.2451C67.0428 32.2885 66.5489 32.3294 65.9535 32.3376C64.7672 32.354 63.1445 32.2413 61.3026 31.738C57.5122 30.7023 53.0968 28.0874 49.7557 22.3061C46.4147 16.5247 46.3557 11.3972 47.3532 7.59982C47.8378 5.75463 48.5514 4.29428 49.1588 3.27611C49.4636 2.76509 49.746 2.3582 49.9675 2.06174C50.0784 1.91325 50.1746 1.79162 50.2515 1.69762C50.29 1.6506 50.3237 1.6104 50.3521 1.57713L50.3907 1.5324L50.4068 1.51392L50.4141 1.50566L50.4209 1.49805Z" fill="#4147D5"/>
<path d="M43.2352 40.5152C42.8465 39.626 42.1416 38.8709 41.1892 38.4348C40.6354 38.1813 40.0545 38.0615 39.4828 38.0619C38.9111 38.0615 38.3302 38.1813 37.7765 38.4348C36.8241 38.8709 36.1192 39.626 35.7305 40.5152L22.1113 70.2037C21.1691 72.2576 22.0719 74.6857 24.1277 75.6271C26.1836 76.5684 28.6141 75.6664 29.5563 73.6125L39.4828 51.9736L49.4094 73.6125C50.3516 75.6664 52.782 76.5684 54.8379 75.6271C56.8938 74.6857 57.7966 72.2576 56.8544 70.2037L43.2352 40.5152Z" fill="#4147D5"/>
</svg>
