<svg width="76" height="77" viewBox="0 0 76 77" fill="none" xmlns="http://www.w3.org/2000/svg">
<rect x="9" y="8" width="59" height="59" fill="#D7DFFF"/>
<path d="M74.8117 22.7611C74.6379 18.8287 74.002 16.1244 73.091 13.7823C72.1509 11.2954 70.7054 9.06917 68.8109 7.21809C66.9598 5.33803 64.7191 3.87802 62.2611 2.95248C59.9045 2.04142 57.2148 1.40556 53.2823 1.23175C49.3209 1.04345 48.0622 1 38.013 1C27.9639 1 26.7066 1.04345 22.7597 1.21726C18.8272 1.39107 16.123 2.02693 13.7809 2.93799C11.294 3.87802 9.06772 5.32355 7.21664 7.21809C5.33658 9.06917 3.87657 11.3099 2.95103 13.7679C2.04142 16.1244 1.40556 18.8127 1.23175 22.7452C1.04345 26.7066 1 27.9653 1 38.0145C1 48.0637 1.04345 49.3209 1.21726 53.2678C1.39107 57.2003 2.02693 59.9045 2.93799 62.2466C3.87802 64.7336 5.33803 66.9598 7.21809 68.8109C9.06917 70.6909 11.3099 72.1509 13.7679 73.0765C16.1244 73.9875 18.8142 74.6234 22.7466 74.7972C26.6936 74.971 27.9523 75.0145 38 75.0145C48.0477 75.0145 49.3064 74.971 53.2534 74.7972C57.1858 74.6234 59.89 73.9875 62.2321 73.0765C67.206 71.153 71.1385 67.2205 73.062 62.2466C73.9731 59.89 74.6089 57.2003 74.7827 53.2678C74.9565 49.3209 75 48.0622 75 38.0145C75 27.9668 74.9855 26.7081 74.8117 22.7611ZM68.1461 52.9796C67.9867 56.5949 67.3798 58.5459 66.8729 59.848C65.6287 63.0722 63.0708 65.6316 59.8451 66.8758C58.5444 67.3813 56.5775 67.9896 52.9767 68.1475C49.0732 68.3213 47.9014 68.3648 38.0261 68.3648C28.1507 68.3648 26.9645 68.3213 23.0754 68.1475C19.4602 67.9882 17.5091 67.3813 16.207 66.8758C14.6022 66.2834 13.1421 65.3434 11.9559 64.1136C10.7262 62.9129 9.78759 61.4674 9.19374 59.8625C8.68824 58.5618 8.0799 56.5949 7.92202 52.9941C7.74821 49.0906 7.70476 47.9188 7.70476 38.0435C7.70476 28.1681 7.74821 26.9818 7.92202 23.0928C8.08135 19.4775 8.68824 17.5265 9.19374 16.2244C9.78614 14.6195 10.7262 13.1595 11.9704 11.9733C13.1697 10.7436 14.6152 9.80497 16.2215 9.21257C17.5222 8.70707 19.4891 8.09873 23.0899 7.9394C26.9934 7.76559 28.1652 7.72214 38.0406 7.72214C47.9159 7.72214 49.1022 7.76559 52.9912 7.9394C56.6065 8.09873 58.5575 8.70562 59.8596 9.21257C61.4645 9.80497 62.9245 10.745 64.1107 11.9733C65.3405 13.174 66.279 14.6195 66.8729 16.2244C67.3784 17.5251 67.9867 19.492 68.1461 23.0928C68.3199 26.9963 68.3633 28.1681 68.3633 38.0435C68.3633 47.9188 68.3199 49.0761 68.1461 52.9796Z" fill="#4147D5" stroke="#4147D5" stroke-width="2"/>
<path d="M62.2189 18.2492C62.2189 20.7 60.2317 22.6887 57.7795 22.6887C55.3273 22.6887 53.3401 20.7014 53.3401 18.2492C53.3401 15.7971 55.3273 13.8098 57.7795 13.8098C60.2317 13.8098 62.2189 15.7971 62.2189 18.2492Z" fill="#4147D5" stroke="#4147D5" stroke-width="2"/>
<circle cx="38" cy="38" r="14" fill="white"/>
<path d="M38.0147 19.0012C27.518 19.0012 19.0012 27.5165 19.0012 38.0147C19.0012 48.5129 27.518 57.0282 38.0147 57.0282C48.5114 57.0282 57.0282 48.5129 57.0282 38.0147C57.0282 27.5165 48.5129 19.0012 38.0147 19.0012V19.0012ZM38.0147 50.348C31.2056 50.348 25.6814 44.8252 25.6814 38.0147C25.6814 31.2042 31.2056 25.6814 38.0147 25.6814C44.8237 25.6814 50.348 31.2042 50.348 38.0147C50.348 44.8252 44.8252 50.348 38.0147 50.348V50.348Z" fill="#4147D5" stroke="#4147D5" stroke-width="2"/>
</svg>
