<svg width="90" height="90" viewBox="0 0 90 90" fill="none" xmlns="http://www.w3.org/2000/svg">
<path d="M62.8714 32.7378L67.9003 38.477C68.4757 39.1309 68.9761 39.6394 69.2013 39.9542C70.7024 41.4072 71.5531 43.3687 71.5531 45.4029C71.4029 47.8003 69.8017 49.447 68.3006 51.2148L64.7729 55.2105L62.9465 57.2931C62.8714 57.3657 62.8464 57.4626 62.8214 57.5594C62.7964 57.6563 62.8214 57.7532 62.8714 57.8258C62.9215 57.9227 62.9715 57.9953 63.0716 58.0438C63.1467 58.0922 63.2467 58.1164 63.3468 58.1164H81.7108C84.513 58.1164 88.0406 60.3927 87.8405 63.8557C87.8405 65.4297 87.165 66.9311 86.0141 68.0451C84.8382 69.159 83.262 69.7887 81.6107 69.7887H52.8388C50.9373 69.7887 45.8585 69.9824 44.4324 65.793C44.1321 64.9212 44.0821 63.9767 44.3073 63.0807C44.7326 61.7489 45.3831 60.4896 46.2338 59.3757C47.6849 57.2931 49.236 55.2347 50.7872 53.2247C52.7887 50.5851 54.8153 48.0424 56.8418 45.3544C56.9169 45.2576 56.9419 45.1607 56.9419 45.0396C56.9419 44.9185 56.8919 44.8217 56.8418 44.7248L49.5363 36.4186C49.4862 36.3702 49.4362 36.3218 49.3611 36.2733C49.2861 36.2491 49.211 36.2249 49.136 36.2249C49.0609 36.2249 48.9858 36.2491 48.9108 36.2733C48.8357 36.2975 48.7857 36.346 48.7357 36.4186C46.7842 38.9371 38.2026 50.1008 36.3762 52.3772C34.5498 54.6293 30.0464 54.7746 27.5445 52.3772L16.1108 41.4314C16.0357 41.3588 15.9356 41.3103 15.8356 41.2861C15.7355 41.2619 15.6354 41.2861 15.5353 41.3103C15.4353 41.3588 15.3602 41.4072 15.3102 41.5041C15.2601 41.5767 15.2101 41.6736 15.2351 41.7704V62.8144C15.2601 64.3158 14.8098 65.7688 13.9091 67.0038C13.0084 68.2388 11.7574 69.159 10.2813 69.6676C9.33059 69.9824 8.32983 70.0792 7.35409 69.9339C6.37834 69.7887 5.42762 69.4496 4.627 68.8927C3.80137 68.3357 3.15088 67.6092 2.70054 66.7616C2.25019 65.9141 2 64.9696 2 64.0252V26.1752C2.07506 24.819 2.57544 23.5114 3.47613 22.4216C4.37682 21.3561 5.57773 20.5812 6.95378 20.2179C8.12968 19.9274 9.38063 19.9274 10.5565 20.2179C11.7324 20.5328 12.8082 21.114 13.6839 21.9615L31.2723 38.7434C31.3224 38.7918 31.3974 38.8403 31.4475 38.8645C31.5225 38.8887 31.5976 38.8887 31.6726 38.8887C31.7477 38.8887 31.8228 38.8645 31.8728 38.816C31.9478 38.7918 31.9979 38.7434 32.0479 38.6707L44.5325 22.1795C45.1079 21.5014 45.8334 20.9687 46.6591 20.6054C47.4847 20.2422 48.3854 20.0242 49.2861 20.0242H81.7609C82.6615 20.0242 83.5372 20.218 84.3378 20.557C85.1384 20.9202 85.864 21.4288 86.4644 22.0584C87.0399 22.688 87.4902 23.4387 87.7404 24.2621C87.9906 25.0854 88.0657 25.933 87.9406 26.7806C87.7154 28.2335 86.9398 29.5654 85.7639 30.5099C84.588 31.4543 83.0869 31.9871 81.5357 31.9628H63.3468C63.2467 31.9628 63.1717 31.9871 63.0966 32.0355C63.0216 32.0839 62.9465 32.1566 62.9215 32.2292C62.8714 32.3019 62.8714 32.3987 62.8714 32.4714C62.7964 32.5683 62.8214 32.6651 62.8714 32.7378Z" fill="#4147D5"/>
</svg>
