<?xml version="1.0" encoding="utf-8"?>
<!-- Generator: Adobe Illustrator 26.3.1, SVG Export Plug-In . SVG Version: 6.00 Build 0)  -->
<svg version="1.1" id="Layer_1" xmlns="http://www.w3.org/2000/svg" xmlns:xlink="http://www.w3.org/1999/xlink" x="0px" y="0px"
	 viewBox="0 0 90 75" style="enable-background:new 0 0 90 75;" xml:space="preserve">
<style type="text/css">
	.st0{fill:#FFFFFF;}
	.st1{fill:#4147D5;}
</style>
<g>
	<path class="st0" d="M79.4,17.3l5.3-5.1l1.2-1.2V9.2V8V4h-4H61.5h-2.7l-1,2.5L46.7,34.3L34,6.3L33,4h-2.6H8.9h-4v4v1.2v1.4l0.9,1.1
		l6.9,8.4l0,0v32.7v0.4l0,0.2l0,0l-0.1,0.1l-7.8,9.5L4,64.2v1.4v1.2v4h4h22h4v-4v-1.2v-1.4l-0.9-1.1l-7.8-9.5l-0.1-0.1l-0.1-0.1
		l0-0.2v-0.3v-10l11.7,25.7l1.1,2.3h2.6h2.2h2.7l1-2.5l8.9-22.7v12l-5.4,5.2l-1.2,1.2v1.7V67v4h4h29h4v-4v-1.2v-1.7l-1.2-1.2
		l-5.2-5.2V17.3z M56,57.1"/>
	<path class="st1" d="M85.9,75h-37c-0.6,0-1.2-0.2-1.8-0.4c-0.5,0.2-1,0.3-1.6,0.3H38c-0.7,0-1.4-0.2-2-0.5
		c-0.6,0.3-1.2,0.5-1.9,0.5H4c-2.2,0-4-1.8-4-4v-6.7c0-0.9,0.3-1.8,0.9-2.5l7.9-9.6V21.6l-6.9-8.4c-0.6-0.7-0.9-1.6-0.9-2.5V4
		c0-2.2,1.8-4,4-4h28c1.6,0,3,0.9,3.6,2.3l9.9,21.8l8.6-21.6C55.7,1,57.2,0,58.8,0H86c2.2,0,4,1.8,4,4v6.9c0,1.1-0.4,2.1-1.2,2.9
		L83.4,19v37.1l5.2,5.2c0.8,0.8,1.2,1.8,1.2,2.8V71C89.9,73.2,88.1,75,85.9,75z M52.8,67h29v-1.2l-5.2-5.2c-0.8-0.8-1.2-1.8-1.2-2.8
		V17.3c0-1.1,0.4-2.1,1.2-2.9L82,9.2V8L61.5,8L50.4,35.8c-0.6,1.5-2,2.5-3.6,2.5c-1.6,0.1-3.1-0.9-3.7-2.3L30.4,8H8.9v1.2l6.9,8.4
		c0.6,0.7,0.9,1.6,0.9,2.6v32.7c0.2,1.2-0.2,2.3-1,3.2l0,0L8,65.6v1.2h22v-1.2l-7.8-9.5c-0.8-0.9-1.2-2.1-1.1-3.3v-10
		c0-1.9,1.3-3.5,3.2-3.9c1.8-0.4,3.7,0.5,4.5,2.2l11.7,25.7h2.2l8.9-22.7c0.7-1.8,2.6-2.8,4.5-2.5c1.9,0.4,3.3,2,3.3,3.9v12
		c0,1.1-0.4,2.1-1.2,2.9l-5.4,5.2V67z"/>
</g>
</svg>
