<?xml version="1.0" encoding="UTF-8"?>
<svg id="Layer_1" data-name="Layer 1" xmlns="http://www.w3.org/2000/svg" version="1.1" viewBox="0 0 81 76">
  <defs>
    <style>
      .cls-1 {
        fill: #4147d5;
      }

      .cls-1, .cls-2 {
        stroke-width: 0px;
      }

      .cls-2 {
        fill: #d7e0ff;
      }
    </style>
  </defs>
  <path class="cls-2" d="M31.3,31c-1.1,2.1-.2,4.7,1.9,5.7,16.5,8.3,26.8,17.7,28.1,25.4-9.1,8.2-24.5,6.7-37.1-3.7C9.7,46.3,7.4,24.8,14.3,10.9c5.4,3.4,12.9,4.6,20.8,5.9,10.2,1.7,20.8,3.5,27,9.6,8.8,8.8,10.6,18.6,5.4,27.8-5.8-11.3-20.8-20.3-30.5-25.2-2.1-1.1-4.7-.2-5.7,1.9Z"/>
  <path class="cls-1" d="M68.1,20.4c-8.1-8.1-20.6-10.2-31.6-12-8.7-1.4-16.9-2.8-19.8-6.7-.8-1.1-2.2-1.6-3.5-1.7-1.4,0-2.6.7-3.4,1.8C-2.1,18.2-1.3,48.2,18.7,64.9c8.8,7.3,18.7,11,28,11s15.7-2.8,21.4-8.5.4-.4.5-.5c.1-.1.2-.2.4-.4,13.6-14.3,13.3-31.8-.9-46ZM24.2,58.4C9.7,46.3,7.4,24.8,14.3,10.9c5.4,3.4,12.9,4.6,20.8,5.9,10.2,1.7,20.8,3.5,27,9.6,8.8,8.8,10.6,18.6,5.4,27.8-5.8-11.3-20.8-20.3-30.5-25.2-2.1-1.1-4.7-.2-5.7,1.9s-.2,4.7,1.9,5.7c16.5,8.3,26.8,17.7,28.1,25.4-9.1,8.2-24.5,6.7-37.1-3.7Z"/>
</svg>