<?xml version="1.0" encoding="utf-8"?>
<!-- Generator: Adobe Illustrator 26.3.1, SVG Export Plug-In . SVG Version: 6.00 Build 0)  -->
<svg version="1.1" id="Layer_1" xmlns="http://www.w3.org/2000/svg" xmlns:xlink="http://www.w3.org/1999/xlink" x="0px" y="0px"
	 viewBox="0 0 823.3 767.1" style="enable-background:new 0 0 823.3 767.1;" xml:space="preserve">
<style type="text/css">
	.st0{fill:#FD501D;}
	.st1{fill:#4147D5;}
	.st2{fill:#FFFFFF;}
</style>
<g>
	<path class="st1" d="M185.2,438.1c2.3-9.3,4.7-18.6,6.9-27.9c12.6-51.6,25.1-103.2,37.7-154.8c1.5-6.1,4.6-8.6,10.8-8.6
		c8.6,0,17.2,0,25.7,0c5.4,0,7.1,1.6,8.1,6.9c0.2,0.9,1.2,2.2,2.1,2.4c2.8,0.6,3.7,2.4,3.9,5c1.8,18.3,3.8,36.6,5.7,55
		c0,0.4,0.2,0.8,1,1.4c0.3-1.2,0.7-2.4,1-3.7c4.8-19.8,9.6-39.6,14.5-59.3c1.3-5.2,4.3-7.7,9.6-7.7c8.1-0.1,16.2,0,24.3,0
		c8,0,9.5,1.4,9.4,9.2c0.5,0.1,1.1,0.2,1.6,0.3c4.1,0.6,5,1.9,4,5.8c-4.6,19-9.1,38-13.7,57c-10.1,41.7-20.2,83.4-30.3,125.2
		c-1.7,7-3.1,8.1-10.2,8.2c-7.9,0-15.8,0-23.6,0c-2.7,0-5.1-0.3-5.9-3.6c-0.1-0.6-1.5-1.2-2.3-1.3c-6.8-0.7-7.9-2-8.7-8.8
		c-2-17-4.2-34-6.5-52c-0.6,1.5-1,2.1-1.1,2.8c-4.6,18.8-9.2,37.5-13.8,56.3c-1.2,4.9-3.3,6.6-8.3,6.7c-8.5,0.1-16.9,0-25.4,0
		c-3.5,0-6.2-0.9-6.4-3.8c-3.8-1.7-7-3.1-10.1-4.5C185.2,442.3,185.2,440.2,185.2,438.1z M269.6,256.3c-0.2-5.2-0.2-5.2-4.6-5.2
		c-7.9,0-15.8,0-23.6,0c-4.6,0-5.3,0.6-6.4,5.1c-14.7,60.5-29.4,120.9-44.1,181.4c-1.3,5.5-1.2,5.6,4.4,5.4c0.5,0,1.1-0.2,1.6-0.3
		c0.3-1.2,0.6-2.2,0.9-3.2c14.2-58.2,28.4-116.4,42.6-174.6c1.8-7.4,3.4-8.6,11-8.6C257.3,256.3,263.3,256.3,269.6,256.3z
		 M290.3,354.7c0.2,0,0.4,0,0.5,0c0.2-0.8,0.5-1.5,0.7-2.3c7.2-29.7,14.5-59.3,21.7-89c1.4-5.7,3-7,8.9-7.1c4.9,0,9.7-0.1,14.6,0
		c2.6,0.1,4.4-0.5,4.3-3.4c-0.1-2.8-2.5-1.8-4-1.8c-7.6-0.1-15.3-0.1-22.9,0c-5,0-5.7,0.6-6.9,5.4c-6.2,25.4-12.3,50.8-18.5,76.2
		c-0.3,1.1-0.5,2.3-0.4,3.4C288.9,342.3,289.6,348.5,290.3,354.7z M267.4,442.6c-3.5-27.3-7-54.5-10.5-81.8c-0.5,0-0.9,0-1.4-0.1
		c-0.5,5.3-2,10.7-1.4,15.9c2.2,20.7,5.1,41.3,7.6,61.9C262.2,443.2,262.3,443.3,267.4,442.6z"/>
	<path class="st1" d="M322.5,447.8c-11.7-1.5-12.1-2.1-9.3-13.9c14.5-59.7,29.1-119.4,43.7-179c1.4-5.7,4.4-8.1,10.4-8.1
		c15.6,0,31.3,0,46.9,0c0.7,0,1.4-0.1,2.7-0.9c-0.7-0.6-1.3-1.4-2.1-1.7c-0.8-0.3-1.8,0-2.8-0.1c-4.8-0.3-7.4-3.6-6.4-8.3
		c1.4-6.6,3.1-13.1,4.7-19.6c0.8-3.4,3.2-5.4,6.4-6.2c1.8-0.5,3.7-0.5,5.5-0.5c47.5,0,95,0,142.6,0c0.2,0,0.5,0,0.7,0
		c7.4,0,9.4,2.2,8.7,9.5c1,0.1,2,0.1,3,0.3c2.6,0.6,4.1,1.9,3.4,4.9c-1.6,6.5-3,13.1-4.5,19.6c-0.8,3.4-3,5.2-6.4,5.4
		c-3.1,0.2-6.3,0.1-9.4,0.1c-13.3,0-26.7,0.1-40-0.1c-3.3-0.1-4.5,1-5.3,4.2c-15.5,64.1-31,128.2-46.6,192.2c-1.3,5.6-3.3,7.1-9,7.1
		c-9.5,0-19,0-28.5,0c-3.3,0-5.7-1.1-5.9-5c-2-0.2-4-0.2-5.9-0.6c-3.9-0.8-5.5-3.6-4.5-7.4c12.5-51.3,24.9-102.5,37.4-153.8
		c0.1-0.4,0.2-0.9,0.1-0.6c-3.5,0.4-7.1,1.1-10.7,1.2c-12.2,0.2-24.3,0.1-36.8,0.1c-4.5,18.3-8.9,36.5-13.4,55.1
		c6.5,0,12.6,0,18.7,0c1.4,0,2.8-0.1,4.2,0c5.7,0.4,7.5,2.8,6.6,9.4c1,0.1,2,0.1,3,0.3c2.6,0.5,3.9,2,3.3,4.7
		c-1.7,7.4-3.5,14.9-5.3,22.3c-0.9,3.7-3.4,5.3-8.2,5.3c-9.3,0.1-18.6,0.2-27.8-0.1c-3.9-0.1-5.2,1.1-6.1,4.9
		c-4.3,19.1-9,38-13.6,57.1c-1.3,5.5-3.4,7.2-8.9,7.2c-9.5,0-19,0-28.5,0C324.2,452.6,323.2,451.7,322.5,447.8z M447.3,251.8
		c-1.4-0.1-2.9-0.3-4.4-0.4c-24.7,0-49.4,0-74,0c-5.1,0-5.8,0.5-7,5.7c-11.3,46.4-22.6,92.8-33.8,139.2
		c-3.7,15.3-7.5,30.7-11.3,46.4c2.6,0,4.9,0,7.3,0c0.3-0.9,0.6-1.8,0.8-2.7c14.2-58.6,28.4-117.1,42.6-175.7c1.6-6.6,3-7.8,9.7-7.8
		c22,0,44-0.1,66,0.1C446.7,256.6,447.8,255.3,447.3,251.8z M473.9,249.8c-7.4-1.4-7.6-1.2-9.3,5.4c-3.3,13.5-6.6,27-9.9,40.4
		c-11.4,47-22.9,93.9-34.3,140.9c-1.6,6.7-1.5,6.7,5.4,6.4c0.2,0,0.4-0.2,0.9-0.4C442.4,378.5,458.1,314.3,473.9,249.8z
		 M493.7,214.1c-24.2,0-48.4,0-72.7,0c-3.4,0-5.4,1.1-6.2,4.6c-1.3,5.8-2.8,11.5-4.1,17.2c-0.4,1.5-0.9,3.7,1.5,3.8
		c2.1,0.1,5.3,1.9,6.1-2.3c0.7-3.4,1.6-6.7,2.5-10.1c1.7-6.9,3.2-8,10.3-8c44.4,0,88.8,0,133.2,0c0.9,0,1.9,0.2,2.8-0.1
		c0.8-0.3,1.8-0.9,2.1-1.6c1.2-3-0.5-3.4-3.1-3.4C541.9,214.1,517.8,214.1,493.7,214.1z M389.3,351.2c7.7,0,15.3-0.2,22.9,0.1
		c3.7,0.1,4.3-1.6,4.1-5.1c-1.2,0-2.3,0-3.4,0c-6.1,0-12.3,0.2-18.4-0.1C390.9,346,389,346.9,389.3,351.2z M460.9,249.5
		c-3.3,0-6.1,0-8.9,0c0,2.3,0,4.5,0,6.4c2.1,0.7,4.3,1.4,6.7,2.2C459.3,255.8,460,252.9,460.9,249.5z"/>
	<path class="st1" d="M521.5,546.2c0.8-2.2,1.7-4.4,2.5-6.6c7.2-19.4,14.2-38.9,21.5-58.2c1.8-4.8,4.5-9.4,7.2-13.8
		c3.1-5.3,7-9.5,14-9.1c1,0.1,2.4-1.2,3.2-2.2c2.7-3.2,5.1-6.6,7.8-9.8c1.2-1.4,2.9-3.2,4.6-1.3c0.9,1,1,3.5,0.4,4.9
		c-3.3,9.1-7.6,17.9-10.1,27.2c-1.9,6.9-1.6,14.4-2,21.6c-0.1,1.3,0.8,3.6,1.8,3.9c1.1,0.4,3-0.6,4.1-1.6c8.8-7.2,15-16.7,21.7-26
		c-1-0.4-1.8-0.6-2.6-1c-2.8-1.2-4.4-3.5-3.3-6.4c4-10.2,9.3-19.4,18.5-25.8c1.9-1.3,4-2.4,6-0.6c2.1,1.8,2.2,4.3,1.1,6.7
		c-1.8,3.9-3.8,7.7-5.7,11.5c-0.6,1.3-1.1,2.6-2,4.6c7.1-3.9,13.3-7.3,19.6-10.7c1.2-0.7,2.5-1.5,3.8-1.7c1.3-0.2,3.3,0,3.9,0.8
		c0.6,0.8,0.3,2.9-0.3,3.9c-2.5,3.9-5.4,7.5-8,11.3c-7.9,11.7-14.6,24-15.9,38.4c-0.4,4.9,0.3,9.9,1.3,14.7c0.9,4.3,3.5,5.3,7.2,2.9
		c2.4-1.5,4.1-3.9,6.3-5.8c0.7-0.6,1.8-0.7,2.7-1.1c0.1,1,0.7,2.2,0.3,2.9c-2.2,4.3-5.9,6.9-10.5,7.8c-4.4,0.9-8.3-1.6-10-6.2
		c-3.4-9-2-18,0.5-26.9c3.5-12.1,10.1-22.6,17.1-32.8c0.6-0.9,1.2-1.8,1.2-3.2c-0.7,0.2-1.4,0.3-2.1,0.7c-1.2,0.6-2.4,1.4-3.6,2
		c-12,5.7-22.2,13.2-29,25.2c-3.4,5.9-8.9,10.6-13.5,15.8c-0.2,0.2-0.3,0.3-0.5,0.5c-2.5,2.1-5.1,4.4-8.7,3.2c-3.7-1.2-5-4.8-5-8.1
		c-0.1-6.1,0.2-12.3,1.3-18.2c1.4-7.5,3.8-14.9,5.7-22c-0.3,0.3-1.2,1.1-1.9,2c-4.9,6.9-9.8,13.8-14.7,20.7
		c-2.1,2.9-4.6,4.2-8.4,1.3c-4.5,12.3-9.1,24.2-13.3,36.1c-3.5,9.8-6.6,19.8-9.8,29.6c-0.3,1-0.4,2.3-1.1,2.9
		c-1.4,1.3-3.1,2.9-4.8,3c-1.2,0.1-3.3-1.9-3.7-3.3c-1.7-6.1-3.3-12.3-4.3-18.6c-3.5-22.6-4.3-45.2,0.4-67.7
		c0.1-0.6,0.1-1.1,0.1-1.7c0-0.2-0.2-0.4-0.5-1.2c-1.1,1.5-2,2.7-2.9,3.9c-10.9,17.2-23.6,32.9-37,48.1c-0.8,0.9-1.8,1.9-2.9,2.4
		c-3.3,1.7-6.6,0-6.7-3.7c-0.1-3.7,0.4-7.3,0.7-11c-1.1,0.8-2.3,1.9-3.7,2.8c-4.3,3.1-9.1,2.2-10.7-2.8c-1.6-5.1-2-10.6-2.9-15.9
		c-0.2-1.2,0-2.5,0-3.7c-0.3-0.1-0.6-0.2-0.9-0.3c-0.7,1.4-1.7,2.7-2.1,4.2c-2.4,10.5-4.6,21-6.9,31.5c-0.1,0.5,0,0.9-0.2,1.4
		c-0.6,1.6-0.3,3.9-3,4c-2.8,0-4-1.8-4.3-4.1c-0.6-4.8-1.1-9.7-1.4-14.5c-0.2-3.8,0-7.6,0-11.4c-1.6,2.2-3.2,4.6-5,6.9
		c-3.6,4.7-7.9,8.7-13.4,11.3c-7.1,3.4-16-0.4-17.7-8.2c-2.1-9.9,0.3-18.9,7.1-26.4c3.4-3.7,8.5-4.4,11.2-2.1
		c2.9,2.4,2.7,6.9-0.5,11.3c-0.8,1.1-1.8,2.2-2.8,3c-3.2,2.6-4.5,2.5-7.3-0.7c-0.6-0.7-1.3-1.2-2.1-2c-2.8,6-3.8,12-2.2,18.1
		c1.1,4.2,5,6.3,9.2,4.8c7-2.3,12.2-7.1,16.4-12.9c4.9-6.6,9.4-13.4,11.1-21.7c0.5-2.2,1.3-4.5,2.3-6.5c0.5-1,1.8-1.6,2.8-2.4
		c0.2,1.2,0.8,2.5,0.5,3.5c-4.1,11.6-5.9,23.6-5.7,35.8c0,1.3,0.1,2.5,0.3,3.8c0,0.3,0.4,0.5,1,1.4c0.4-1.5,0.7-2.5,1-3.5
		c3.6-12.1,7.1-24.2,10.9-36.2c0.5-1.7,2.6-4.3,3.6-4.2c2.9,0.4,2.1,3.2,2.1,5.4c0.2,8.3,0.2,16.6,0.7,24.9c0.2,2.4,1.9,4.7,3,7.1
		c2-1.4,4.5-2.4,6.1-4.2c4.3-4.7,8.4-9.6,12.2-14.7c7.9-10.9,16.5-20.9,28.6-27.3c1.1-0.6,2.4-0.7,3.6-1c0.2,0.4,0.4,0.7,0.5,1.1
		c-1.1,0.9-2.2,1.7-3.3,2.6c-16.4,11.8-28.7,26.5-34.2,46.2c-0.6,2-0.5,4.3-0.7,6.4c0.3,0.2,0.5,0.3,0.8,0.5
		c0.9-0.7,2.1-1.2,2.8-2.1c15-18,30.1-35.9,41.7-56.3c4.3-7.6,7.5-15.9,10.6-24.1c3.9-10.4,8.9-20.1,16.2-28.5
		c1.6-1.9,3.4-4.8,6.5-3.1c3.5,1.9,2,5.1,0.8,7.7c-2.1,4.6-4.4,9.2-7,13.5c-4.5,7.4-9.1,14.8-14.1,21.9c-5.2,7.3-6.3,15.8-8.1,24.2
		c-5.3,25.9-3,51.6,2.1,77.3c0.3,1.3,0.9,2.5,1.4,3.7C520.9,546.1,521.2,546.1,521.5,546.2z M615.2,445.9
		c-6.4-0.1-19.6,18.7-18.6,25.4c0.5-0.1,1.1,0,1.6-0.2c3.9-1.1,5.9-4.1,7.6-7.5C608.8,457.8,611.9,452.1,615.2,445.9z M542.4,404.3
		c-7.2,6.6-10.6,15.3-14.2,24C534.4,421.2,539.2,413.2,542.4,404.3z M553.5,479.1c4.4-5.2,9-10.1,12.1-17.1
		C558.3,464.4,552.5,472.6,553.5,479.1z M402.4,485.5c1.2-1.1,2.8-2.1,3.6-3.5c1-2,1.4-4.3,2-6.5c-2,0.8-4.4,1.2-6.1,2.4
		C397.6,481.3,397.7,482.2,402.4,485.5z"/>
	<path class="st1" d="M288.9,489.8c1.4-2.9,2.5-4.8,3.3-6.8c0.4-1,0-2.3,0-3.5c-1.3,0-2.9-0.4-3.9,0.1c-2,1-4.1,2.3-5.7,4
		c-10.7,11-15.3,24.4-14,39.6c0.7,8.1,5.6,10.4,13,6.9c7.8-3.7,14.1-9.3,19-16.4c6.4-9.2,12.5-18.6,18.8-27.9
		c3.1-4.6,6.7-8.5,13.2-8.2c1.2,0.1,2.7-1.2,3.6-2.2c2.3-2.7,4.3-5.8,6.6-8.5c1.5-1.8,3.1-4.6,5.9-2.7c2.5,1.7,0.7,4.2-0.1,6.3
		c-3.4,8.8-7.4,17.5-9.8,26.6c-1.8,6.7-1.5,13.9-1.9,21c-0.1,1.4,0.8,3.6,1.8,4c1,0.4,3.1-0.6,4.1-1.6c5.4-5.7,10.6-11.6,15.7-17.6
		c2.1-2.5,3.5-5.6,5.8-7.8c5.2-5.2,6.2-11.5,6.7-18.5c1.5-23.4,8-45.2,21.2-64.9c1.3-2,2.7-4.3,5.4-3.1c2.6,1.1,2.7,3.8,2.3,6.3
		c-3.4,19.4-10.8,37.5-18.1,55.6c-0.2,0.4-0.3,0.9-0.5,1.3c-8.3,13.9-8.5,28.8-5.3,44c2.2,10.3,4.8,20.5,7.7,30.6
		c0.8,2.7,3.3,4.9,4.8,7.4c0.6,1.1,0.6,2.6,0.9,4c-1.4-0.3-3.5,0-4.1-0.9c-2-2.9-3.9-6-5.2-9.3c-5.5-13.8-7.9-28.3-9.1-43
		c-0.3-3.2-0.7-6.4-1.2-10.6c-2.1,3-3.5,5.3-5.1,7.3c-5.5,6.7-11.1,13.4-16.6,20c-0.4,0.5-1,1-1.5,1.4c-6,4.7-10.6,3.2-12.6-4.2
		c-1.8-6.9-0.5-13.8,1-20.6c1.7-7.2,3.9-14.3,5.8-21.3c-0.5,0.6-1.5,1.4-2.2,2.4c-5.1,7-10,14.2-15.2,21.1c-2.5,3.2-4.9,3-8.1-0.2
		c-1.7,2.6-3.3,5-4.9,7.5c-6.1,9.6-13.3,18.2-23.2,24c-12.3,7.2-22.9,1.4-22.9-12.9c0-13.1,4-25.2,12.8-35.1c2.7-3,6.4-5.3,10.1-7.1
		c4.7-2.3,8.7,0.7,8.2,5.9c-0.2,2.1-1,4.3-2.2,6C292.6,489.3,290.6,489.3,288.9,489.8z M396.8,413.4c-9.7,5.3-25.4,52.8-20.5,60.8
		C384.8,454.7,392.7,435,396.8,413.4z M332.2,482c-0.3-0.2-0.6-0.5-0.9-0.7c-6.4,1.7-12.9,11-11.3,17.8
		C324.4,493,328.3,487.5,332.2,482z"/>
</g>
</svg>
