<?xml version="1.0" encoding="utf-8"?>
<!-- Generator: Adobe Illustrator 26.3.1, SVG Export Plug-In . SVG Version: 6.00 Build 0)  -->
<svg version="1.1" id="Layer_1" xmlns="http://www.w3.org/2000/svg" xmlns:xlink="http://www.w3.org/1999/xlink" x="0px" y="0px"
	 viewBox="0 0 90 90" style="enable-background:new 0 0 90 90;" xml:space="preserve">
<style type="text/css">
	.st0{fill:#FFFFFF;}
	.st1{fill:#4147D5;}
	.st2{fill:#D7DFFF;}
</style>
<g>
	<g>
		<path class="st0" d="M14.3,54.3c-1.7,0-3.2-0.9-4-2.4c-0.8-1.5-0.7-3.2,0.2-4.6l15.1-23.7c0.8-1.3,2.3-2.1,3.8-2.1
			c1.8,0,3.4,1,4.1,2.7c2.1,4.6,5.3,13.3,3.9,19.4c-0.6,2.6-2.1,5.4-3.3,7.5c-0.2,0.4-0.4,0.8-0.7,1.2c-0.9,1.3-2.3,2-3.8,2H14.3z"
			/>
		<path class="st1" d="M29.5,25.6c0.2,0,0.4,0.1,0.5,0.3c2.5,5.6,4.6,12.5,3.6,16.8c-0.4,1.8-1.6,4.2-2.9,6.4
			c-0.2,0.3-0.4,0.6-0.6,0.9c-0.1,0.1-0.3,0.2-0.4,0.2H14.3c-0.4,0-0.7-0.4-0.4-0.8l0.2-0.4L29,25.8C29.1,25.7,29.3,25.6,29.5,25.6
			 M29.5,17.6C29.5,17.6,29.5,17.6,29.5,17.6c-2.9,0-5.6,1.5-7.2,3.9L7.4,44.8l-0.2,0.4c-1.7,2.6-1.8,5.9-0.3,8.6
			c1.5,2.7,4.4,4.4,7.5,4.4h15.3c2.9,0,5.5-1.4,7.1-3.8c0,0,0,0,0-0.1c0.3-0.5,0.6-0.9,0.8-1.4c1.3-2.3,3-5.5,3.7-8.5c0,0,0,0,0-0.1
			c1.6-6.9-1.4-15.7-4.1-21.9C35.9,19.6,32.8,17.6,29.5,17.6L29.5,17.6z"/>
	</g>
	<g>
		<path class="st2" d="M80.3,53.8v3.7c0,0.2-0.1,0.4-0.3,0.5c-1.2,0.5-5.1,2.3-6.7,4.6c-4.2,5.8-7.4,14.2-14.5,14.2H28.9
			c-10.6,0-19.1-8.6-19.1-19.2v-0.3c0-0.3,0.2-0.5,0.5-0.5h16.6c0.3,0,0.6,0.3,0.5,0.6c-0.1,1.1,0.1,2.2,0.6,3.2c1,2,3,3.3,5.2,3.3
			h8.2v-6.4h-8.1c-0.4,0-0.7-0.5-0.4-0.8c0.1-0.1,0.2-0.3,0.3-0.4c0.8-1.1,1.9-2.8,3-4.7c0.7-1.3,1.5-2.7,2.1-4.1
			c0.1-0.3,0.2-0.5,0.3-0.8c0.2-0.4,0.3-0.9,0.4-1.3c0.1-0.4,0.2-0.7,0.3-1.1c0.3-1.2,0.4-2.4,0.4-3.8c0-0.5,0-1-0.1-1.6
			c0-0.6-0.1-1.1-0.2-1.7c0-0.5-0.1-1-0.2-1.5c-0.1-0.7-0.3-1.5-0.5-2.2l-0.1-0.3c-0.1-0.5-0.3-1-0.4-1.5c-0.5-1.6-1-3.2-1.6-4.6
			c-0.2-0.6-0.4-1.1-0.7-1.7c-0.3-0.8-0.7-1.6-1-2.3c-0.2-0.3-0.3-0.6-0.4-0.9c-0.2-0.3-0.3-0.7-0.5-1c-0.1-0.3-0.3-0.5-0.3-0.7
			l-1-1.9c-0.1-0.3,0.1-0.6,0.4-0.5l6.3,1.7h0c0,0,0,0,0,0l0.8,0.2l0.9,0.3l0.3,0.1v-3.7c0-1.8,1.4-3.3,3.2-3.3c0.9,0,1.7,0.4,2.3,1
			c0.6,0.6,0.9,1.4,0.9,2.3v5.6l0.7,0.2c0.1,0,0.1,0,0.2,0.1c0.2,0.1,0.4,0.3,0.7,0.5c0.2,0.2,0.5,0.4,0.8,0.7
			c0.6,0.5,1.3,1.1,2.1,1.8c0.2,0.2,0.4,0.4,0.6,0.6c1,1,2.2,2.1,3.3,3.3c0.3,0.3,0.6,0.7,0.9,1.1c0.3,0.4,0.6,0.7,0.9,1.1
			c0.4,0.5,0.8,1,1.1,1.5c0.2,0.3,0.4,0.5,0.5,0.8c0.4,0.7,0.8,1.4,1.2,2.1c0.2,0.3,0.3,0.7,0.5,1c0.4,0.9,0.7,1.9,1,2.8
			c0.1,0.2,0.1,0.4,0.1,0.6v0c0.1,0.3,0.1,0.6,0.1,0.9c0.1,1,0,2-0.2,2.9c-0.1,0.4-0.2,0.8-0.3,1.2c-0.1,0.4-0.3,0.8-0.5,1.2
			c-0.4,0.8-0.8,1.6-1.3,2.4c-0.2,0.3-0.3,0.6-0.5,0.9c-0.2,0.3-0.4,0.6-0.6,0.9c-0.3,0.4-0.5,0.7-0.8,1.1c-0.3,0.3-0.5,0.7-0.8,1
			c-0.4,0.5-0.8,0.9-1.2,1.3c-0.2,0.3-0.5,0.6-0.7,0.8c-0.3,0.3-0.5,0.5-0.7,0.8c-0.4,0.4-0.7,0.7-1,1l-0.6,0.6
			c-0.1,0.1-0.2,0.1-0.3,0.1h-5v6.4h6.3c1.4,0,2.8-0.5,3.8-1.4c0.4-0.3,2-1.7,3.9-3.8c0.1-0.1,0.1-0.1,0.2-0.1l17.4-5
			C80,53.3,80.3,53.5,80.3,53.8z"/>
		<path class="st1" d="M44.7,13.2c0.9,0,1.7,0.4,2.3,1c0.6,0.6,0.9,1.4,0.9,2.3v5.6l0.7,0.2c0.1,0,0.1,0,0.2,0.1
			c0.2,0.1,0.4,0.3,0.7,0.5c0.2,0.2,0.5,0.4,0.8,0.7c0.6,0.5,1.3,1.1,2.1,1.8c0.2,0.2,0.4,0.4,0.6,0.6c1,1,2.2,2.1,3.3,3.3
			c0.3,0.3,0.6,0.7,0.9,1.1c0.3,0.4,0.6,0.7,0.9,1.1c0.4,0.5,0.8,1,1.1,1.5c0.2,0.3,0.4,0.5,0.5,0.8c0.4,0.7,0.8,1.4,1.2,2.1
			c0.2,0.3,0.3,0.7,0.5,1c0.4,0.9,0.7,1.9,1,2.8c0.1,0.2,0.1,0.4,0.1,0.6v0c0.1,0.3,0.1,0.6,0.1,0.9c0.1,1,0,2-0.2,2.9
			c-0.1,0.4-0.2,0.8-0.3,1.2c-0.1,0.4-0.3,0.8-0.5,1.2c-0.4,0.8-0.8,1.6-1.3,2.4c-0.2,0.3-0.3,0.6-0.5,0.9c-0.2,0.3-0.4,0.6-0.6,0.9
			c-0.3,0.4-0.5,0.7-0.8,1.1c-0.3,0.3-0.5,0.7-0.8,1c-0.4,0.5-0.8,0.9-1.2,1.3c-0.2,0.3-0.5,0.6-0.7,0.8c-0.3,0.3-0.5,0.5-0.7,0.8
			c-0.4,0.4-0.7,0.7-1,1l-0.6,0.6c-0.1,0.1-0.2,0.1-0.3,0.1h-5v6.4h6.3c1.4,0,2.8-0.5,3.8-1.4c0.4-0.3,2-1.7,3.9-3.8
			c0.1-0.1,0.1-0.1,0.2-0.1l17.4-5c0,0,0.1,0,0.1,0c0.3,0,0.5,0.2,0.5,0.5v3.7c0,0.2-0.1,0.4-0.3,0.5c-1.2,0.5-5.1,2.3-6.7,4.6
			c-4.2,5.8-7.4,14.2-14.5,14.2H28.9c-10.6,0-19.1-8.6-19.1-19.2v-0.3c0-0.3,0.2-0.5,0.5-0.5h16.6c0.3,0,0.6,0.3,0.5,0.6
			c-0.1,1.1,0.1,2.2,0.6,3.2c1,2,3,3.3,5.2,3.3h8.2v-6.4h-8.1c-0.4,0-0.7-0.5-0.4-0.8c0.1-0.1,0.2-0.3,0.3-0.4
			c0.8-1.1,1.9-2.8,3-4.7c0.7-1.3,1.5-2.7,2.1-4.1c0.1-0.3,0.2-0.5,0.3-0.8c0.2-0.4,0.3-0.9,0.4-1.3c0.1-0.4,0.2-0.7,0.3-1.1
			c0.3-1.2,0.4-2.4,0.4-3.8c0-0.5,0-1-0.1-1.6c0-0.6-0.1-1.1-0.2-1.7c0-0.5-0.1-1-0.2-1.5c-0.1-0.7-0.3-1.5-0.5-2.2l-0.1-0.3
			c-0.1-0.5-0.3-1-0.4-1.5c-0.5-1.6-1-3.2-1.6-4.6c-0.2-0.6-0.4-1.1-0.7-1.7c-0.3-0.8-0.7-1.6-1-2.3c-0.2-0.3-0.3-0.6-0.4-0.9
			c-0.2-0.3-0.3-0.7-0.5-1c-0.1-0.3-0.3-0.5-0.3-0.7l-1-1.9c-0.1-0.2,0-0.5,0.3-0.5c0,0,0.1,0,0.1,0l6.3,1.7h0c0,0,0,0,0,0l0.8,0.2
			l0.9,0.3l0.3,0.1v-3.7C41.5,14.7,42.9,13.2,44.7,13.2 M44.7,5.2c-3.9,0-7.3,2-9.4,5l-0.2-0.1C34.5,10,33.7,9.9,33,9.9
			c-2.9,0-5.7,1.6-7.2,4.1c-1.5,2.5-1.5,5.6-0.1,8.2l0.8,1.6c0.1,0.2,0.2,0.4,0.3,0.5l0,0.1c0,0.1,0,0.1,0.1,0.2
			c0.1,0.2,0.2,0.5,0.4,0.8c0.2,0.4,0.3,0.7,0.5,1l0.2,0.3c0.2,0.5,0.5,1,0.7,1.6c0,0,0,0,0,0.1c0.2,0.5,0.4,0.9,0.5,1.3
			c0,0.1,0.1,0.1,0.1,0.2c0.5,1.3,1,2.7,1.3,4c0,0.1,0,0.2,0.1,0.2c0.1,0.2,0.1,0.4,0.2,0.7c0,0.1,0.1,0.2,0.1,0.3l0,0.1
			c0,0.1,0,0.1,0,0.2c0.2,0.6,0.3,1.1,0.3,1.5c0,0.1,0,0.1,0,0.2c0,0.3,0.1,0.6,0.1,0.8c0,0.1,0,0.2,0,0.2c0,0.4,0.1,0.8,0.1,1
			c0,0.1,0,0.3,0,0.4c0,0.3,0,0.6,0,0.8c0,0.7-0.1,1.3-0.2,1.8l0,0c0,0.1-0.1,0.3-0.1,0.4c0,0.1-0.1,0.2-0.1,0.4
			c0,0.1-0.1,0.2-0.1,0.4L31,43.7l0,0c0,0.1,0,0.1-0.1,0.2c0,0.1-0.1,0.2-0.1,0.2c-0.4,0.9-0.9,2-1.6,3.2c-0.3,0.5-0.6,1-0.8,1.4
			c-0.5-0.1-1-0.1-1.5-0.1H10.2c-4.7,0-8.5,3.8-8.5,8.5v0.3c0,15,12.2,27.2,27.1,27.2h29.8c10,0,15.2-8.4,18.7-13.9
			c0.8-1.3,1.5-2.5,2.3-3.5c0.4-0.4,1.8-1.3,3.5-2c0,0,0,0,0.1,0c3.1-1.4,5.1-4.4,5.1-7.8v-3.7c0-4.7-3.8-8.5-8.5-8.5
			c-0.8,0-1.6,0.1-2.4,0.3l-7.7,2.2c0.3-0.8,0.4-1.4,0.6-2.1c0.4-1.7,0.5-3.5,0.3-5.3c0-0.4-0.1-0.9-0.2-1.4c-0.1-0.5-0.2-1-0.3-1.5
			c-0.3-1.3-0.8-2.6-1.3-4c-0.2-0.4-0.4-0.9-0.6-1.4c0-0.1-0.1-0.2-0.1-0.3c-0.4-0.7-0.9-1.7-1.5-2.6c-0.1-0.2-0.3-0.4-0.4-0.6
			l-0.1-0.2c-0.4-0.7-0.9-1.3-1.2-1.7l-0.2-0.2c0,0,0,0,0,0c-0.3-0.3-0.5-0.7-0.8-1c-0.1-0.1-0.2-0.2-0.3-0.3c0,0,0,0,0,0
			c-0.4-0.4-0.7-0.9-1.1-1.3c-1.1-1.2-2.3-2.4-3.7-3.8c-0.3-0.3-0.5-0.5-0.8-0.8c-0.6-0.6-1.2-1.1-1.8-1.5v-1.3c0-3-1.1-5.8-3.2-7.9
			C50.6,6.5,47.7,5.2,44.7,5.2L44.7,5.2z"/>
	</g>
</g>
</svg>
