<svg width="82" height="75" viewBox="0 0 82 75" fill="none" xmlns="http://www.w3.org/2000/svg">
<path d="M34.058 36.2874L34.0501 36.3207C33.5119 38.5457 32.1902 41.1627 30.9271 43.2944C30.7222 43.6746 30.5031 44.0412 30.2749 44.3917C30.2632 44.4096 30.2514 44.4274 30.2395 44.4451C29.4062 45.681 28.0117 46.4202 26.5211 46.4161M34.058 36.2874L15.2747 43.8385M34.058 36.2874C34.7396 33.36 34.2972 30.0089 33.5801 27.0591C32.8366 24.0008 31.6663 20.8609 30.444 18.1213L30.4332 18.0972C30.08 17.3194 29.5082 16.6515 28.7768 16.182C28.7758 16.1813 28.7748 16.1806 28.7737 16.18C26.6938 14.8466 23.9271 15.4522 22.5939 17.5322L22.5913 17.5364L8.7601 39.175L8.75644 39.1807L8.53224 39.5328M34.058 36.2874L13.7849 38.7409M26.5211 46.4161C26.5131 46.4161 26.5051 46.416 26.4971 46.4159L26.5295 42.4161M26.5211 46.4161H26.5295V42.4161M26.5211 46.4161H12.3048C8.81581 46.4161 6.59456 42.5513 8.53224 39.5328M26.5295 42.4161H16.183L15.5044 43.4778L15.5007 43.4835M26.5295 42.4161L15.5007 43.4835M8.53224 39.5328L8.52673 39.5414L11.9007 41.69M8.53224 39.5328C8.53656 39.526 8.5409 39.5193 8.54527 39.5126L11.9007 41.69M11.9007 41.69C11.6987 42.0013 11.922 42.4161 12.3048 42.4161H13.0197H13.041H13.8308L15.4809 43.4708C15.4204 43.5947 15.3518 43.7174 15.2747 43.8385M11.9007 41.69L12.1304 41.3292L12.3048 41.0564L13.7849 38.7409M15.2747 43.8385L15.5007 43.4835M15.2747 43.8385L15.5007 43.4835M13.7849 38.7409C13.3403 38.5337 12.8409 38.4161 12.3048 38.4161H13.9925L13.7849 38.7409ZM15.8043 42.4161C15.7558 42.7676 15.6512 43.1206 15.4839 43.4647L13.8372 42.4161H15.8043ZM15.2562 43.8673L15.2741 43.8394C15.2682 43.8487 15.2622 43.858 15.2562 43.8673Z" fill="white" stroke="#4147D5" stroke-width="8" stroke-linejoin="round"/>
<path d="M77.541 45.3723C77.5503 45.4838 77.5551 45.5967 77.5551 45.7107V45.7111V49.135C77.5551 50.9817 76.44 52.5529 74.8757 53.2434L74.8363 53.2606C74.3888 53.4524 73.3835 53.908 72.355 54.5239C71.2298 55.1976 70.517 55.8061 70.2482 56.1795L77.541 45.3723ZM77.541 45.3723C77.519 45.082 77.4689 44.7966 77.3927 44.5202L77.3885 44.5051C76.7226 42.1244 74.2501 40.7298 71.8641 41.4012L71.8366 41.4091L56.7588 45.7686C56.9288 45.5482 57.0809 45.3416 57.2062 45.1708C57.2328 45.1347 57.2587 45.0981 57.284 45.061C57.3434 44.9741 57.4111 44.8791 57.5101 44.7407L57.52 44.7268C57.6097 44.6015 57.7243 44.4412 57.8405 44.2719C57.8502 44.2578 57.8598 44.2436 57.8694 44.2294C58.0683 43.9317 58.2769 43.6016 58.4696 43.2673C59.0055 42.4163 59.4753 41.523 59.8727 40.5955C60.1019 40.0924 60.2795 39.5821 60.3856 39.2774C60.3985 39.2403 60.4103 39.2063 60.4211 39.1757L60.4252 39.1638C60.6075 38.6397 60.7584 38.1053 60.8772 37.5621L60.8803 37.5477C61.1561 36.264 61.2326 34.9469 61.1085 33.6416C61.0931 33.4324 61.063 33.0238 60.975 32.5593C60.9299 32.2089 60.8562 31.8537 60.759 31.5128C60.5012 30.4056 60.1267 29.3352 59.6774 28.3207C59.5037 27.8983 59.3158 27.5003 59.1546 27.1728C59.1333 27.1295 59.1113 27.0867 59.0885 27.0442C58.725 26.3687 58.2993 25.6058 57.7945 24.8387C57.6849 24.6666 57.577 24.5084 57.5018 24.3985L57.4738 24.3576C57.3981 24.2469 57.3542 24.1826 57.3138 24.1206L77.541 45.3723ZM26.6847 45.3022C25.9624 44.729 25.0321 44.3663 23.9249 44.3663H8.47557C6.00589 44.3663 4 46.3675 4 48.8414V49.1575C4 61.2099 13.7382 71 25.7817 71H53.4951C58.6419 71 62.0748 67.905 64.4212 64.9291C65.601 63.4326 66.6473 61.7884 67.5749 60.3042C67.6978 60.1076 67.8185 59.9141 67.9373 59.7236C68.7536 58.4142 69.4822 57.2455 70.2477 56.1802L26.6847 45.3022Z" fill="#D7DFFF" stroke="#4147D5" stroke-width="8" stroke-linejoin="round"/>
</svg>
