<?xml version="1.0" encoding="utf-8"?>
<!-- Generator: Adobe Illustrator 28.3.0, SVG Export Plug-In . SVG Version: 6.00 Build 0)  -->
<svg version="1.1" id="Layer_1" xmlns="http://www.w3.org/2000/svg" xmlns:xlink="http://www.w3.org/1999/xlink" x="0px" y="0px"
	 viewBox="0 0 800 800" style="enable-background:new 0 0 800 800;" xml:space="preserve">
<style type="text/css">
	.st0{fill:#000072;enable-background:new    ;}
	.st1{fill:#DDEBF8;}
	.st2{fill:#FF862A;}
</style>
<path class="st0" d="M606.2,160.4C551.2,105.3,477.9,75,400,75s-151.2,30.3-206.2,85.4c-55.1,55.1-85.4,128.3-85.4,206.2
	c0,38.9,7.7,77.3,22.8,114.3c14.1,34.4,34.7,67.7,61.3,98.8c48.8,57.2,117,106.7,197.3,143c3.3,1.5,6.8,2.2,10.3,2.2s7-0.7,10.3-2.2
	c80.3-36.3,148.5-85.8,197.3-143c26.5-31.1,47.2-64.4,61.3-98.8c15.1-37,22.8-75.4,22.8-114.3C691.7,288.8,661.3,215.5,606.2,160.4z
	 M569.5,547.3c-42,49.2-100.4,92.3-169.5,125.1c-69.1-32.8-127.6-75.9-169.5-125.1c-47.9-56.1-72.1-116.9-72.1-180.7
	c0-64.5,25.1-125.2,70.8-170.9C274.8,150.1,335.5,125,400,125s125.2,25.1,170.9,70.8c45.7,45.6,70.8,106.3,70.8,170.9
	C641.7,430.4,617.4,491.2,569.5,547.3z"/>
<path class="st1" d="M570.9,195.8C525.2,150.1,464.5,125,400,125s-125.2,25.1-170.9,70.8c-45.7,45.6-70.8,106.3-70.8,170.9
	c0,63.8,24.3,124.5,72.1,180.7c42,49.2,100.4,92.3,169.5,125.1c69.1-32.8,127.6-75.9,169.5-125.1c47.9-56.1,72.1-116.9,72.1-180.7
	C641.7,302.1,616.5,241.4,570.9,195.8z M400,491.7c-68.9,0-125-56.1-125-125c0-68.9,56.1-125,125-125s125,56.1,125,125
	C525,435.6,468.9,491.7,400,491.7z"/>
<path class="st0" d="M400,241.7c-68.9,0-125,56.1-125,125c0,68.9,56.1,125,125,125s125-56.1,125-125
	C525,297.7,468.9,241.7,400,241.7z M400,441.7c-41.3,0-75-33.6-75-75c0-41.4,33.7-75,75-75c41.4,0,75,33.6,75,75
	C475,408,441.4,441.7,400,441.7z"/>
<path class="st2" d="M475,366.7c0,41.4-33.6,75-75,75c-41.3,0-75-33.6-75-75c0-41.4,33.7-75,75-75C441.4,291.7,475,325.3,475,366.7z
	"/>
</svg>
