<?xml version="1.0" encoding="UTF-8"?>
<svg id="Layer_1" data-name="Layer 1" xmlns="http://www.w3.org/2000/svg" version="1.1" viewBox="0 0 16 16">
  <defs>
    <style>
      .cls-1 {
        fill: #4247cc;
        fill-rule: evenodd;
      }

      .cls-1, .cls-2 {
        stroke-width: 0px;
      }

      .cls-2 {
        fill: #fff;
      }
    </style>
  </defs>
  <g>
    <path class="cls-1" d="M11.5,7.8c.1,2.1-1.5,3.8-3.7,3.7s-3.2-1.5-3.3-3.3,1.5-3.8,3.7-3.7,3.2,1.5,3.3,3.3Z"/>
    <path class="cls-2" d="M8,11.7c0,0-.1,0-.2,0-1.9,0-3.4-1.6-3.5-3.5,0-1.1.3-2.1,1.1-2.9.7-.7,1.8-1.1,2.9-1.1,1.9,0,3.4,1.6,3.5,3.5h0c0,1.1-.3,2.1-1.1,2.9s-1.6,1.1-2.6,1.1ZM8,4.8c-.9,0-1.7.3-2.3.9-.6.6-1,1.5-.9,2.5,0,1.6,1.4,2.9,3,3,1,0,1.8-.3,2.5-.9.6-.6,1-1.5.9-2.5h0c0-1.6-1.4-2.9-3-3,0,0-.1,0-.2,0Z"/>
  </g>
  <circle class="cls-2" cx="8" cy="8" r=".6"/>
</svg>