<?xml version="1.0" encoding="utf-8"?>
<!-- Generator: Adobe Illustrator 26.3.1, SVG Export Plug-In . SVG Version: 6.00 Build 0)  -->
<svg version="1.1" id="Layer_1" xmlns="http://www.w3.org/2000/svg" xmlns:xlink="http://www.w3.org/1999/xlink" x="0px" y="0px"
	 viewBox="0 0 823.3 767.1" style="enable-background:new 0 0 823.3 767.1;" xml:space="preserve">
<style type="text/css">
	.st0{fill:#FD501D;}
	.st1{fill:#4147D5;}
	.st2{fill:#FFFFFF;}
</style>
<g>
	<path class="st1" d="M122.2,498.1c-3.4-1.7-6.9-3.4-10.3-5.2c-28.8-15.7-57.7-31.5-86.5-47.2c-2.8-1.5-4-3.6-4-6.8
		c0.1-36.1,0-72.2,0-108.4c0-2.8,1.1-4.8,3.6-6.1c31.3-18,62.6-36.1,93.9-54.1c2.7-1.6,5.2-1.6,8,0c31.1,18,62.3,36.1,93.4,54
		c2.6,1.5,3.8,3.5,3.8,6.5c0,14.2,0,28.4,0.1,42.7c0,22,0.1,44,0.1,66c0,2.7-1.2,4.6-3.5,5.9c-31.5,17.2-63,34.5-94.4,51.7
		c-0.8,0.4-1.7,0.7-2.6,1.1C123.2,498.1,122.7,498.1,122.2,498.1z M38,433.7c56.6,0,113.1,0,169.7,0c-28.3-49-56.5-97.8-84.8-146.7
		C94.6,336,66.3,384.8,38,433.7z M106.1,291.8c0-0.1-0.1-0.1-0.1-0.2c-0.4,0.2-0.8,0.4-1.1,0.6c-23.4,13.5-46.8,27-70.3,40.5
		c-0.8,0.5-1.1,1-1.1,1.9c0,27,0,54.1,0,81.1c0,0.4,0,0.7,0,1.1c0.1,0,0.2,0,0.2,0C57.8,375.2,81.9,333.5,106.1,291.8z M139.9,291.7
		c-0.1,0.1-0.1,0.1-0.2,0.2c24.1,41.7,48.2,83.3,72.2,125c0.2-2.8,0.2-5.5,0.2-8.2c0-9.9-0.1-19.7-0.1-29.6c0-14.8,0-29.6,0-44.5
		c0-0.9-0.3-1.4-1.1-1.9c-19.7-11.3-39.3-22.7-59-34.1C147.9,296.3,143.9,294,139.9,291.7z M51.2,445.9c2,1.1,3.8,2.1,5.5,3
		c21.8,11.9,43.6,23.8,65.3,35.7c0.6,0.3,1,0.4,1.6,0c23.3-12.8,46.7-25.6,70.1-38.4c0.2-0.1,0.3-0.2,0.5-0.4
		C146.5,445.9,99,445.9,51.2,445.9z"/>
	<path class="st1" d="M565.3,418c0-15.9,0-31.7,0-47.7c5.5,0,11,0,16.5,0c0,40.4,0,80.8,0,121.3c-5.5,0-10.9,0-16.5,0
		c0-4,0-8.1,0-12.4c-0.8,1.1-1.5,2-2.1,2.8c-5,6-11.4,9.4-19,10.5c-11.8,1.8-22.8-0.6-32.3-8.1c-6.8-5.4-10.7-12.6-12.8-20.8
		c-3.3-12.6-2.6-25,2.7-36.9c4.6-10.4,12.6-17.1,23.4-20.2c10.4-3,20.6-2.6,30.3,2.8c3.5,2,6.5,4.7,8.9,7.9c0.2,0.3,0.5,0.6,0.7,0.9
		C565.2,418,565.3,418,565.3,418z M566.5,448.9c0-0.2,0-0.3,0-0.5c0.2-7.8-2.1-14.9-7.2-20.9c-5-5.8-11.5-8.4-19.2-8.3
		c-10.1,0-17.6,4.4-22.4,13.3c-4.5,8.3-4.8,17.1-2.6,26.1c1.7,6.8,5.3,12.5,11.4,16.4c4.9,3.1,10.4,3.9,16.1,3.5
		c7.1-0.5,13-3.5,17.4-9.1C564.7,463.4,566.8,456.5,566.5,448.9z"/>
	<path class="st1" d="M679.1,404.6c12.1,0.4,22.1,3.2,30.6,10.5c7.3,6.3,11.5,14.3,13.4,23.6c2.3,10.9,1.1,21.4-3.8,31.4
		c-4.8,9.8-12.5,16.5-22.7,20.1c-12.9,4.5-25.7,3.9-37.9-2.2c-11.3-5.6-18.2-15-21.2-27.1c-3.4-13.9-1.4-27,6.8-38.8
		c6.4-9.2,15.6-14.3,26.5-16.4C673.9,405,677,404.8,679.1,404.6z M707.3,448.8c-0.1-3.9-0.6-7.6-1.9-11.2c-1.5-4-3.3-7.9-6.5-10.9
		c-6.9-6.5-15.2-8.8-24.5-6.9c-6.6,1.3-12.2,4.5-16,10.3c-5.7,8.8-7.1,18.4-4.2,28.5c1.4,4.8,3.5,9.2,7.2,12.6
		c6.8,6.2,14.9,8.4,24,6.7c5.8-1.1,10.9-3.7,14.6-8.3C705,463.6,707.2,456.5,707.3,448.8z"/>
	<path class="st1" d="M464.6,406.1c5.6,0,11,0,16.5,0c0,28.5,0,56.9,0,85.5c-5.4,0-10.9,0-16.4,0c0-4.7,0-9.5,0-14.5
		c-0.2,0.2-0.3,0.3-0.4,0.3c-3.7,7.8-10,12.5-18.3,14.5c-8.9,2.1-17.6,1.6-25.6-3.2c-8.1-4.9-12.6-12.4-14.5-21.5
		c-0.6-3-0.7-6.1-0.7-9.2c-0.1-16.8,0-33.6,0-50.5c0-0.5,0-0.9,0-1.5c5.5,0,10.9,0,16.5,0c0,0.4,0.1,0.7,0.1,1.1
		c0,15.8,0.1,31.6,0,47.5c-0.1,6.1,1.3,11.7,5,16.5c3.5,4.5,8.3,6.8,14,7c6.3,0.2,11.8-1.6,16.2-6c5-5,7.6-11.1,7.6-18.1
		c0.1-15.5,0-30.9,0-46.4C464.6,407.2,464.6,406.7,464.6,406.1z"/>
	<path class="st1" d="M734.9,463.8c5.2,0,10.2,0,15.3,0c0.1,0.9,0.2,1.7,0.4,2.6c1.2,5.1,4.1,8.8,8.9,10.9c7,3,14,2.9,20.8-0.9
		c6.6-3.7,7.4-14-0.4-18.1c-2.9-1.5-6-2.1-9.1-2.7c-6-1.3-12-2.4-17.9-3.8c-10.8-2.6-16.2-11.5-16-21.8c0.1-7.5,2.6-13.7,8.5-18.3
		c3.9-3,8.2-5.1,13-6c11-2.1,21.6-1,31.1,5.5c6.8,4.6,10.4,11.1,11.3,19.3c0,0.3,0,0.6,0,0.8c0,0.1,0,0.1-0.1,0.3
		c-5.1,0-10.2,0-15.2,0c-0.4-1.4-0.8-2.9-1.3-4.2c-1.6-3.7-4.5-6.1-8.1-7.5c-6.4-2.6-12.7-2.9-18.8,0.8c-3.8,2.3-5.3,6.5-4.4,11
		c0.6,2.8,2.4,4.7,5,5.7c4.7,1.8,9.5,2.6,14.4,3.4c5,0.8,10.1,1.9,14.9,3.4c5.4,1.7,9.5,5.3,11.8,10.5c3.8,8.7,3.9,17.4-1,25.7
		c-3,5.1-7.8,8.4-13.3,10.2c-10.6,3.5-21.2,3.9-31.6-0.5c-9.6-4.1-15.7-11.2-17.8-21.5c-0.3-1.3-0.3-2.6-0.5-3.9
		C734.8,464.3,734.9,464.1,734.9,463.8z"/>
	<path class="st1" d="M257.5,463.8c5.3,0,10.4,0,15.6,0c0.3,3.6,1.5,6.8,3.8,9.4c3.4,3.8,7.9,5.6,12.9,5.9c4.4,0.3,8.8-0.2,12.7-2.5
		c3.9-2.2,6-5.5,5.8-10c-0.2-4.5-2.8-7.5-6.8-9c-2.9-1.1-6-1.8-9.1-2.5c-5.8-1.3-11.8-2.3-17.5-3.9c-9.1-2.5-14.5-9.5-15.2-18.9
		c-0.4-6.7,0.8-13,5.5-18.2c3.6-4,8.2-6.7,13.4-8.1c12.9-3.4,25.1-2.1,35.8,6.4c5.8,4.6,8.7,10.8,9.2,18.2c0,0.2,0,0.4,0,0.7
		c-5.2,0-10.2,0-15.3,0c-0.4-1.4-0.7-2.8-1.3-4.1c-1.6-3.8-4.6-6.2-8.3-7.7c-6.4-2.6-12.7-2.8-18.8,0.9c-5.4,3.3-6,11.7-1.9,15
		c0.8,0.6,1.7,1.2,2.6,1.6c5.2,2.1,10.6,2.8,16.1,3.7c4.4,0.7,8.8,1.7,13,3.1c8.2,2.7,12.7,8.8,14.2,17.1c1,5.5,0.8,11-1.5,16.2
		c-2.7,6.1-7.3,10.3-13.4,12.7c-11.2,4.3-22.6,4.7-33.8-0.2c-9.6-4.2-15.4-11.6-17.3-22C257.7,466.4,257.6,465.2,257.5,463.8z"/>
	<path class="st1" d="M332.7,406.1c5.8,0,11.5,0,17.4,0c0-9,0-17.8,0-26.8c5.6,0,11,0,16.6,0c0,8.9,0,17.8,0,26.8
		c8.5,0,16.8,0,25.2,0c0,4.8,0,9.4,0,14.2c-8.3,0-16.7,0-25.2,0c0,0.6,0,1,0,1.4c0,14.2,0,28.4,0,42.7c0,7.2,5,13.2,12.9,13
		c4-0.1,8.1,0,12.2,0c0,4.8,0,9.5,0,14.3c-0.5,0-0.9,0-1.3,0c-4.5,0-9,0-13.4,0c-7.3,0-13.8-2.4-19.1-7.3c-4.3-4-6.7-9.2-7.6-15
		c-0.2-1.4-0.3-2.9-0.3-4.3c0-14.3,0-28.7,0-43c0-0.5,0-0.9,0-1.6c-5.9,0-11.6,0-17.4,0C332.7,415.5,332.7,410.9,332.7,406.1z"/>
	<path class="st1" d="M457.6,370.3c0-3.7,0-7.3,0-11c0.4,0,0.8-0.1,1.2-0.1c7.4,0,14.7,0,22.1,0c3.3,0,6.2-2,6.9-5.4
		c0.5-2.8,0.4-5.7,0.4-8.7c-1.7,1.7-3.5,3.1-5.7,3.9c-8,3-18.6,1.9-25.3-5.3c-4.7-5.1-6.7-11.3-6.8-18.2c0-4.8,0.5-9.4,2.4-13.8
		c3.7-8.6,10.5-12.9,19.7-13.4c2.6-0.1,5.3,0.2,7.8,0.8c3,0.6,5.5,2.2,7.7,4.8c0-1.7,0-3.2,0-4.8c4.8,0,9.4,0,14.2,0
		c0,0.4,0,0.9,0,1.4c0,17.4-0.1,34.8,0,52.2c0,9.4-6.5,16-15.5,17.3c-1.1,0.2-2.2,0.2-3.3,0.2c-8.1,0-16.2,0-24.2,0
		C458.7,370.3,458.3,370.3,457.6,370.3z M464,323.9c0.4,2,0.5,4.1,1.1,6.1c1.5,4.7,4.7,7.8,9.7,8.4c5.2,0.6,9.6-1,12.2-5.8
		c3-5.5,2.9-11.2-0.2-16.7c-3.9-6.9-13.6-7.2-18.4-2.6C465.5,316.2,464.3,319.8,464,323.9z"/>
	<path class="st1" d="M273.9,345.9c0,7.9,0,16.1,0,24.3c-4.7,0-9.2,0-13.9,0c0-23.7,0-47.3,0-71c4.6,0,9.2,0,13.9,0
		c0,1.6,0,3.3,0,5.1c0.3-0.2,0.4-0.2,0.5-0.3c2.9-3.3,6.6-5,10.9-5.5c7.4-0.8,14.2,0.8,19.6,6.3c3.6,3.7,5.5,8.3,6.3,13.3
		c1.3,7.2,0.7,14.3-3,20.8c-3.8,6.8-9.9,10.5-17.5,11.5c-3.8,0.5-7.5,0.3-11.1-1.2C277.6,348.4,275.8,347.1,273.9,345.9z
		 M297.8,324.1c0.1-1.9-0.3-4.2-1.3-6.3c-2.1-4.7-5.7-7.2-10.7-7.3c-5.1-0.2-8.9,2.1-11.2,6.7c-1.8,3.5-2,7.3-1.2,11.1
		c0.9,4.6,3.5,8.1,8.2,9.6c4.5,1.4,8.7,0.6,12.1-2.6C296.8,332.4,297.9,328.6,297.8,324.1z"/>
	<path class="st1" d="M344,350.6c-9.4-0.2-17.7-3.1-23.1-11.3c-7.9-12-4.9-30,8.2-37.4c10.5-5.9,24.8-4.4,33.3,3.7
		c4.9,4.7,7.3,10.6,7.6,17.3c0.4,8.5-2.2,15.9-8.9,21.5c-4.6,3.9-10.1,5.6-16.1,6.1C344.7,350.6,344.4,350.6,344,350.6z
		 M356.3,324.4c-0.4-2-0.6-3.9-1.2-5.5c-1.8-5-5.3-8-10.6-8.4c-5.3-0.4-9.5,1.7-12.1,6.5c-2.2,4.2-2.3,8.7-0.8,13.1
		c1.8,5.1,6.2,8.3,11.5,8.4c5.2,0.1,9.8-2.9,11.7-7.9C355.6,328.5,355.9,326.3,356.3,324.4z"/>
	<path class="st1" d="M539.2,298.4c5.3,0.1,11.8,2.1,17.1,7.1c4.3,4,6.6,9,7.5,14.8c1.1,7.6-0.4,14.7-5.2,20.9
		c-4.3,5.5-10.2,8.3-17,9.2c-7.2,1-14-0.3-20-4.4c-7.4-5-10.8-12.4-10.8-21.2c0-10,4-18.1,13-23.1
		C527.9,299.4,532.5,298.3,539.2,298.4z M524.6,324.5c0.2,1.6,0.3,3.2,0.7,4.7c1.4,5.2,5.8,8.9,10.9,9.3c5.6,0.4,10.3-2.4,12.5-7.4
		c1.4-3.2,1.6-6.5,1-9.9c-0.9-4.8-3.5-8.5-8.3-10.1c-4.7-1.6-9-0.7-12.6,2.7C525.8,316.6,524.6,320.3,524.6,324.5z"/>
	<path class="st1" d="M585.8,349.7c-4.8,0-9.3,0-14,0c0-16.8,0-33.6,0-50.5c4.6,0,9.2,0,14,0c0,2.1,0,4.2,0,6.4
		c0.1,0.1,0.2,0.1,0.4,0.2c0-0.2,0.1-0.3,0.1-0.5c3.4-4.8,8.2-6.7,13.9-7c4.5-0.2,8.8,0.8,12.4,3.5c5,3.7,7.3,8.9,7.4,14.9
		c0.2,10.7,0.1,21.5,0.1,32.2c0,0.2,0,0.4,0,0.6c-4.7,0-9.3,0-14.1,0c0-0.5,0-1,0-1.4c0-9,0-18.1,0-27.1c0-5-3-9.1-7.3-10.1
		c-6-1.4-11.6,2.4-12.7,8.5c-0.1,0.8-0.2,1.7-0.2,2.5c0,8.7,0,17.4,0,26.1C585.8,348.7,585.8,349.2,585.8,349.7z"/>
	<path class="st1" d="M410,370.3c0.3-0.9,0.5-1.5,0.7-2.2c2.1-5.9,4.3-11.9,6.3-17.8c0.2-0.6,0.2-1.3,0-1.9c-5.8-16-11.7-32-17.6-48
		c-0.1-0.4-0.2-0.7-0.4-1.3c2,0,3.9,0,5.8,0c2.4,0,4.8,0.1,7.2,0c1,0,1.4,0.3,1.7,1.2c3.2,9.8,6.4,19.6,9.6,29.5
		c0.2,0.5,0.4,1.1,0.6,1.9c3.5-11,7-21.7,10.5-32.4c4.8,0,9.5,0,14.4,0c-0.4,1-0.7,1.9-1,2.7c-8,22.4-16.1,44.8-24.1,67.2
		c-0.3,0.8-0.7,1.2-1.6,1.1C418.2,370.3,414.2,370.3,410,370.3z"/>
	<path class="st1" d="M603.6,406.1c5.5,0,10.9,0,16.4,0c0,28.5,0,57,0,85.5c-5.5,0-10.9,0-16.4,0
		C603.6,463.1,603.6,434.7,603.6,406.1z"/>
	<path class="st1" d="M378.5,349.7c0-24.2,0-48.3,0-72.4c4.6,0,9.3,0,14,0c0,24.1,0,48.2,0,72.4
		C387.9,349.7,383.3,349.7,378.5,349.7z"/>
	<path class="st1" d="M603.6,389.8c0-6.2,0-12.2,0-18.4c5.4,0,10.8,0,16.3,0c0,6.1,0,12.2,0,18.4C614.4,389.8,609,389.8,603.6,389.8
		z"/>
</g>
</svg>
