<?xml version="1.0" encoding="UTF-8"?>
<svg id="Layer_1" data-name="Layer 1" xmlns="http://www.w3.org/2000/svg" version="1.1" viewBox="0 0 76 76">
  <defs>
    <style>
      .cls-1 {
        fill: #b8c7ff;
        fill-rule: evenodd;
      }

      .cls-1, .cls-2 {
        stroke-width: 0px;
      }

      .cls-2 {
        fill: #d7e0ff;
      }
    </style>
  </defs>
  <path class="cls-2" d="M7.8,62.2c-2.2-9.4-3.2-20.2-3.6-27-.2-3.1,2.3-5.6,5.4-5.6h56.3c3.1,0,5.6,2.5,5.4,5.6-.4,6.9-1.4,17.6-3.6,27-1,4.4-4.2,7.7-8.7,8.3-4.6.7-11.5,1.2-21.4,1.2s-16.8-.6-21.4-1.2c-4.4-.6-7.6-4-8.7-8.3Z"/>
  <path class="cls-1" d="M9.7,33.8c-.8,0-1.3.6-1.2,1.2.4,6.8,1.4,17.2,3.5,26.3.7,2.9,2.7,4.7,5.2,5.1,4.3.6,11,1.2,20.8,1.2s16.4-.6,20.8-1.2c2.5-.4,4.5-2.2,5.2-5.1,2.1-9.1,3.1-19.5,3.5-26.3,0-.6-.4-1.2-1.2-1.2H9.7ZM0,35.4c-.3-5.6,4.2-10.1,9.7-10.1h56.3c5.4,0,10,4.4,9.7,10.1-.4,7-1.4,18-3.7,27.8-1.4,5.8-5.8,10.6-12.2,11.6-4.8.7-12,1.3-22,1.3s-17.2-.6-22-1.3c-6.4-.9-10.8-5.7-12.2-11.6C1.4,53.4.4,42.4,0,35.4Z"/>
  <path class="cls-1" d="M37.8,8.4c-8.6,0-15.5,6.9-15.5,15.5v5.6c0,2.3-1.9,4.2-4.2,4.2s-4.2-1.9-4.2-4.2v-5.6C13.9,10.7,24.6,0,37.8,0s23.9,10.7,23.9,23.9v5.6c0,2.3-1.9,4.2-4.2,4.2s-4.2-1.9-4.2-4.2v-5.6c0-8.6-6.9-15.5-15.5-15.5Z"/>
  <path class="cls-1" d="M26.6,42.2c2.3,0,4.2,1.9,4.2,4.2v8.4c0,2.3-1.9,4.2-4.2,4.2s-4.2-1.9-4.2-4.2v-8.4c0-2.3,1.9-4.2,4.2-4.2ZM49.1,42.2c2.3,0,4.2,1.9,4.2,4.2v8.4c0,2.3-1.9,4.2-4.2,4.2s-4.2-1.9-4.2-4.2v-8.4c0-2.3,1.9-4.2,4.2-4.2Z"/>
</svg>