<svg width="76" height="76" viewBox="0 0 76 76" fill="none" xmlns="http://www.w3.org/2000/svg">
<path d="M7.80223 62.2247C5.61705 52.8094 4.60869 42.0654 4.2311 35.1802C4.06085 32.0757 6.56348 29.5557 9.67264 29.5557H65.9689C69.0781 29.5557 71.5807 32.0757 71.4105 35.1802C71.0329 42.0654 70.0245 52.8094 67.8393 62.2247C66.8267 66.588 63.6147 69.9104 59.1819 70.5534C54.6144 71.216 47.6785 71.7779 37.8208 71.7779C27.9631 71.7779 21.0272 71.216 16.4597 70.5534C12.0269 69.9104 8.81488 66.588 7.80223 62.2247Z" fill="#D7E0FF"/>
<path fill-rule="evenodd" clip-rule="evenodd" d="M9.67233 33.7777C8.86267 33.7777 8.41574 34.3847 8.44667 34.9488C8.81812 41.7219 9.80821 52.1932 11.9148 61.27C12.5858 64.1613 14.5695 66.0127 17.0655 66.3747C21.3852 67.0014 28.1117 67.5555 37.8205 67.5555C47.5292 67.5555 54.2557 67.0014 58.5754 66.3747C61.0714 66.0127 63.0551 64.1612 63.7261 61.27C65.8327 52.1932 66.8228 41.7219 67.1943 34.9488C67.2252 34.3847 66.7783 33.7777 65.9686 33.7777H9.67233ZM0.0148969 35.4112C-0.294673 29.7663 4.26366 25.3333 9.67233 25.3333H65.9686C71.3773 25.3333 75.9356 29.7663 75.6261 35.4112C75.2423 42.4085 74.2157 53.4252 71.9519 63.1791C70.5977 69.0143 66.1574 73.8077 59.7877 74.7317C54.9724 75.4302 47.8272 75.9999 37.8205 75.9999C27.8138 75.9999 20.6685 75.4302 15.8532 74.7317C9.48358 73.8077 5.04328 69.0143 3.68901 63.1791C1.42526 53.4252 0.398636 42.4085 0.0148969 35.4112Z" fill="#4147D5"/>
<path fill-rule="evenodd" clip-rule="evenodd" d="M37.8207 8.44444C29.2705 8.44444 22.3392 15.3757 22.3392 23.9259V29.5556C22.3392 31.8874 20.4489 33.7778 18.117 33.7778C15.7851 33.7778 13.8948 31.8874 13.8948 29.5556V23.9259C13.8948 10.712 24.6068 0 37.8207 0C51.0346 0 61.7466 10.712 61.7466 23.9259V29.5556C61.7466 31.8874 59.8563 33.7778 57.5244 33.7778C55.1925 33.7778 53.3022 31.8874 53.3022 29.5556V23.9259C53.3022 15.3757 46.3709 8.44444 37.8207 8.44444Z" fill="#4147D5"/>
<path fill-rule="evenodd" clip-rule="evenodd" d="M26.5613 42.2224C28.8932 42.2224 30.7836 44.1128 30.7836 46.4446V54.8891C30.7836 57.2209 28.8932 59.1113 26.5613 59.1113C24.2295 59.1113 22.3391 57.2209 22.3391 54.8891V46.4446C22.3391 44.1128 24.2295 42.2224 26.5613 42.2224ZM49.0799 42.2224C51.4117 42.2224 53.3021 44.1128 53.3021 46.4446V54.8891C53.3021 57.2209 51.4117 59.1113 49.0799 59.1113C46.748 59.1113 44.8576 57.2209 44.8576 54.8891V46.4446C44.8576 44.1128 46.748 42.2224 49.0799 42.2224Z" fill="#4147D5"/>
</svg>
