<?xml version="1.0" encoding="utf-8"?>
<!-- Generator: Adobe Illustrator 26.3.1, SVG Export Plug-In . SVG Version: 6.00 Build 0)  -->
<svg version="1.1" id="Layer_1" xmlns="http://www.w3.org/2000/svg" xmlns:xlink="http://www.w3.org/1999/xlink" x="0px" y="0px"
	 viewBox="0 0 823.3 767.1" style="enable-background:new 0 0 823.3 767.1;" xml:space="preserve">
<style type="text/css">
	.st0{fill:#FD501D;}
	.st1{fill:#4147D5;}
	.st2{fill:#FFFFFF;}
</style>
<g>
	<path class="st1" d="M247.5,333.7c1.7,0.6,3.4,0.7,5.2,0.7c9.9,0,19.8,0,29.7,0c1.1,0,2.2,0.3,3.2-0.3c7.7,0.1,15.4-0.2,23,0.3
		c4.6,0.3,9.4,0.7,14-0.4c1.1,0.5,2.2,0.6,3.4,0.6c8.9,0,17.9,0,26.8,0c3-0.4,6.1,0.7,8.9-0.7c2.2,1.3,4.6,0.6,6.9,0.7
		c2.8,0.1,5.6,0,8.5,0c5.6-0.2,11.3,0.3,16.9-0.3c5,0.7,10.1,0.2,15.1,0.3c2.6,0,5.3-0.1,7.9-0.1c3.3,0.2,6.5,0.3,9.7-0.1
		c4.6,0.1,9.2,0.2,13.9,0.2c8.5,0,17.1,0,25.6,0c1.2,0,2.3-0.1,3.4-0.6c4.5,1.1,9.1,0.2,13.7,0.5c16,0,32,0,48-0.1
		c1.4,0,2.7-0.3,4.1-0.5c0.9,0.9,2.1,0.5,3.1,0.5c12.4,0,24.8,0,37.2,0c13.7,0,27.4,0,41-0.1c8.5,0,17,0.1,25.5,0
		c2.3,0,3.2,0.4,3.2,3c-0.2,19.3-0.1,38.7-0.2,58c0,8.9-5.8,15.8-14.7,17.3c-3,0.5-4.2,1.5-3.9,4.7c0.3,4.2-0.1,8.5,0.1,12.7
		c0.1,2.5-0.5,3.6-3.2,3.3c-2.2-0.2-4.5,0-6.8,0.1c-5.4,0.1-10.8-0.4-16.2,0.3c-1.4-0.5-2.9-0.4-4.4-0.4c-10.7,0-21.5-0.1-32.2,0
		c-2.1,0-2.8-0.6-2.7-2.6c0.1-3.8,0-7.7,0.1-11.5c0-1.5-0.6-2-1.9-2.7c-3.2-1.7-5.6-1.9-9.2,0c-3.8,1.9-8.7,0.5-13.1,0.6
		c-5.2,0.1-5.2,0-5.1,5.1c0,1.2,0.1,2.4,0.2,3.5c0,1.8-0.2,3.5-0.1,5.3c0.1,1.9-0.6,2.6-2.5,2.5c-4.8-0.1-9.6-0.1-14.4,0
		c-4.1,0.1-8.2-0.4-12.3,0.3c-2.8-0.8-5.7-0.4-8.5-0.4c-7.2,0-14.3,0-21.5,0.1c-3,0.1-6.1-0.4-9.1,0.3c-6.4-0.9-12.9-0.3-19.4-0.3
		c-3.4,0-6.8,0.1-10.2,0.1c-3.7-0.3-7.4-0.3-11.1,0c-0.8,0-1.7,0-2.5,0c-2.9-0.2-5.8-0.4-8.7,0.1c-1.8-0.1-3.6-0.1-5.5-0.2
		c-4.5,0-9.1,0.1-13.6,0.1c-2.4,0-4.8-0.1-7.1-0.1c-9,0-18.1,0-27.1,0c-1.3,0-2.5,0.3-3.8,0.4c-1.1-0.8-2.3-0.4-3.4-0.4
		c-17.3,0-34.5,0-51.8,0c-32.4,0-64.7,0-97.1,0c-7.1,0-14.2-0.2-21.3,0c-2.4,0-3.1-0.6-3.1-3.1c0.1-27.2-0.1-54.5,0.1-81.7
		c0.1-7.4,5.2-14.4,14.4-14.4c8.6,0,17.2,0,25.7,0c3.9-0.6,7.8-0.2,11.7-0.3C235.7,333.8,241.6,334.4,247.5,333.7z M230.3,350
		c-9.5,0-19,0-28.4,0c-5.4,0-7.9,2.6-7.9,8c0,7.4,0,14.8,0,22.2c0,4.3,3.1,7.5,7.4,7.5c6,0,12,0,18.1,0c3,0,6.1-0.3,9.1,0.4
		c1.2,0.3,2.5,0.6,2.4,2c-0.1,1.3-1.3,1.6-2.4,1.9c-0.7,0.2-1.4,0.1-2.1,0.1c-10,0-19.9,0.1-29.9,0c-2.1,0-2.7,0.6-2.7,2.7
		c0.1,6.7,0.1,13.4,0,20.1c0,2,0.4,2.8,2.6,2.7c19.1-0.1,38.1,0,57.2-0.1c4.3,0,7.2-2.9,7.3-7.2c0-7.5,0-15,0-22.5
		c0-5.7-2.6-8.4-8.3-8.4c-8.6,0-17.2,0-25.8,0c-1.2,0-2.5,0-2.5-1.7c0-1.6,1-2.3,2.4-2.4c0.7-0.1,1.4,0,2.1,0
		c9.9,0,19.7-0.1,29.6,0.1c2.6,0,3.1-0.8,3.1-3.2c-0.2-6.5-0.1-13,0-19.5c0-2.2-0.6-2.9-2.8-2.8C249.3,350.1,239.8,350,230.3,350z
		 M473.3,383.5c4.5-1.3,6.9-3.7,7.1-7.3c0.2-5.4,0.4-10.8,0.5-16.3c0.1-6.1-3.5-9.8-9.6-9.8c-18.3-0.1-36.5,0-54.8-0.1
		c-1.9,0-2.6,0.6-2.6,2.5c0.1,21.1,0.1,42.3,0,63.4c0,1.9,0.7,2.3,2.4,2.3c7.8-0.1,15.6-0.1,23.4,0c2.4,0,2.7-0.9,2.7-2.9
		c-0.1-7,0-14-0.1-21c0-2.2,0.8-2.7,2.8-2.5c4.7,0.4,6.3,2,6.3,6.8c0.1,5.8,0.1,11.7,0,17.5c0,1.7,0.5,2.2,2.2,2.2
		c8.2-0.1,16.4-0.1,24.6,0c1.6,0,2.3-0.4,2.3-2.2c-0.1-7.7,0-15.4-0.1-23.1c-0.1-4-2-7-5.9-8.3C473.9,384.5,473.5,384.3,473.3,383.5
		z M407.8,380.9c0-9.4-0.1-18.8,0-28.1c0-2.2-0.6-2.8-2.9-2.8c-7.8,0.1-15.6,0.1-23.4,0c-2.1,0-2.8,0.5-2.9,2.8
		c-0.6,11.4-0.2,22.9-0.3,34.3c0,3.4-1.4,5.3-3.8,5.3c-2.9,0.1-4.9-2.2-4.9-5.5c0-11.6,0-23.3,0.2-34.9c0-1.7-0.5-2-2-2
		c-8.5,0-17,0-25.5,0c-1.5,0-2.1,0.4-2.1,2c0,19.1,0,38.1,0.1,57.2c0,4.7,4.2,8.7,9,8.6c16.4-0.3,32.8-0.1,49.2-0.1
		c6,0,9.3-3.2,9.3-9.2C407.8,399.2,407.8,390.1,407.8,380.9z M326.6,383.3c7.1-1.4,8.2-5.9,8.1-11.3c-0.1-6.5-0.1-13-0.1-19.5
		c0-1.7-0.3-2.5-2.2-2.4c-8.3,0.1-16.6,0.1-24.9,0c-1.9,0-2.3,0.7-2.3,2.4c0.1,3.9,0,7.9,0,11.8c0,5.4-1.5,6.7-6.9,6.7
		c-1.8,0-2.4-0.6-2.4-2.4c0.1-5.4,0-10.9,0.1-16.3c0-1.6-0.4-2.3-2.2-2.3c-8.2,0.1-16.4,0.1-24.6,0c-1.7,0-2.2,0.5-2.2,2.2
		c0,21,0,42.1,0,63.1c0,2.1,0.8,2.5,2.6,2.4c8-0.1,16-0.1,24,0c2,0,2.5-0.7,2.4-2.6c-0.1-5.6-0.1-11.3,0-16.9c0-0.9-0.4-2,1-2.4
		c4.5-1.5,8.1,1,8.2,5.7c0.1,4.5,0.1,9.1,0,13.6c0,1.9,0.5,2.6,2.5,2.5c8-0.1,16-0.1,24,0c2,0,2.5-0.7,2.5-2.5
		c-0.1-7.8-0.2-15.6,0-23.4c0.1-3.1-1.4-5.1-3.6-6.7C329.7,384.4,328.5,384.1,326.6,383.3z M486.4,384.2c-0.1,0-0.2,0-0.3,0
		c0,8.2,0,16.4,0,24.6c0,2.2,0.1,4.4,0,6.5c-0.2,2.2,0.5,2.9,2.8,2.9c8-0.1,16-0.1,24,0c1.9,0,2.6-0.5,2.5-2.5
		c-0.1-4.2,0.1-8.5,0-12.7c-0.1-2.1,0.6-2.7,2.6-2.7c8.8,0.1,17.6,0,26.3,0.1c6.1,0,9.6-3.3,9.6-9.4c0.1-10.5,0-20.9,0-31.4
		c0-1.3-0.2-2.6-0.5-3.8c-0.9-3.9-3.3-5.8-7.4-5.8c-18.9,0-37.7,0-56.6-0.1c-2.5,0-3.1,0.8-3.1,3.2
		C486.5,363.5,486.4,373.9,486.4,384.2z M560.1,371.1c0,6,0,12,0,18.1c0,7,3.6,10.6,10.5,10.6c1.4,0,2.8,0.1,4.1,0
		c2-0.2,2.8,0.4,2.7,2.6c-0.2,4.5,0,9.1-0.1,13.6c0,1.4,0.2,2.2,1.9,2.2c9.7-0.1,19.4-0.1,29,0c1.6,0,2-0.6,2-2.1
		c-0.1-3.3,0-6.5,0-9.8c0-6.3,0-6.3,6.2-7c7.2-0.9,11-4.7,11.1-11.8c0.3-11.7,0.2-23.5,0.4-35.2c0-1.8-0.6-2.3-2.4-2.3
		c-8.4,0.1-16.8,0.1-25.2,0c-2.1,0-2.4,0.8-2.4,2.6c0.1,7.2,0,14.4,0,21.6c0,3.5-1.6,5.8-4.1,5.8c-2.8,0-4.5-2.1-4.6-5.7
		c0-7.3-0.1-14.6,0-21.9c0-1.8-0.5-2.4-2.4-2.4c-8.2,0.1-16.4,0.1-24.6,0c-2,0-2.5,0.6-2.5,2.5C560.2,358.7,560.1,364.9,560.1,371.1
		z"/>
	<path class="st1" d="M394,334.1c-5.6,0.6-11.2,0.1-16.9,0.3c0.3-1.2-0.2-2.1-0.7-3.1c-6.6-13.9-10.4-28.7-12.9-43.8
		c-2.6-15.7-3.6-31.5-2.9-47.4c1-21.7,4.2-42.9,11.7-63.4c0.8-2.3,1.9-3.5,4.5-3.8c7.1-0.8,14.3-1.6,21.5-2.2
		c8.8-0.6,17.5-0.2,26.3,0.2c2.8,0.1,5.6,0.5,8.9,0.8c-4.3,5.3-8.3,10.2-11.9,15.5c-15.5,23.3-25,48.8-30.3,76.2
		c-2.7,14.2-3.5,28.6-2.8,43C389,315.9,390.7,325.2,394,334.1z"/>
	<path class="st1" d="M440.6,334.5c-4.6-0.1-9.2-0.2-13.9-0.2c7.1-26.1,19.6-49.4,35.8-70.8c16.4-21.7,35.8-40.1,59.2-54.2
		c5.5-3.3,5.4-3.3,10.7,0.4c13,9.1,24.5,19.8,35.3,31.4c1.7,1.9,1.6,2.5-1,3c-30.9,6.6-57.9,21.4-82.7,40.5
		c-14.1,10.8-26.7,23.1-37,37.6c-2,2.8-3.8,5.8-5.6,8.7C440.9,332,440.1,333,440.6,334.5z"/>
	<path class="st1" d="M406.2,433.4c1.8,0.1,3.6,0.1,5.5,0.2c-1.2,15.2-5.8,29.5-11.9,43.4c-12.4,28.3-30.3,52.5-53,73.4
		c-9.2,8.5-19.3,15.9-30.2,22.3c-2.2,1.3-4,1.2-6.3,0c-12.6-6.8-24.6-14.6-35.7-23.7c-3.6-3-7.1-6.1-11.1-9.6
		c7.1-1.1,13.5-2.3,19.9-4c30.5-7.8,58-21.5,82-41.9c14.8-12.6,27.3-27.1,35.6-44.8C403.4,443.9,405.9,439,406.2,433.4z"/>
	<path class="st1" d="M434,433.6c3.4,0,6.8-0.1,10.2-0.1c0.5,2.3,2.4,3.8,3.7,5.6c14.4,20.7,23.8,43.5,29.5,67.9
		c2.8,12.1,4.6,24.3,5.5,36.8c0.9,12.8,0.5,25.6-0.7,38.4c-0.2,1.7-0.8,2.6-2.5,3.2c-15.2,5.2-30.7,8.8-46.6,10.5
		c-2.1,0.2-5.1,1.6-6.2,0.2c-1.2-1.5,1.4-3.7,2.3-5.6c9.3-19.8,15.7-40.4,18.4-62.1c3.4-26.3,2.3-52.3-6.2-77.7
		C439.3,444.8,436.7,439.2,434,433.6z"/>
	<path class="st1" d="M322.6,333.9c-4.6,1.1-9.4,0.7-14,0.4c-7.7-0.5-15.4-0.2-23-0.3c-3.7-3.6-7.5-7-11-10.7
		c-16.2-17-29.4-36-39.5-57.2c-0.8-1.7-1.1-3.2,0.1-5c11.9-16.9,25.8-31.8,42.1-44.6c0.4-0.3,0.8-0.5,1.4-0.9
		c0.3,5.7,0.1,11.1,0.6,16.5c1.6,19.2,6.5,37.6,14,55.3c7.1,16.8,16.4,32.3,29,45.7C322.4,333.4,322.5,333.7,322.6,333.9z"/>
	<path class="st1" d="M502.6,433.8c4.1-0.8,8.2-0.2,12.3-0.3c4.8-0.1,9.6-0.1,14.4,0c1.9,0,2.6-0.6,2.5-2.5
		c-0.1-1.8,0.1-3.5,0.1-5.3c14.2,6.6,27.1,15.3,39.3,25c9.6,7.7,18.5,16.2,26.8,25.4c1.6,1.8,2,3,0.8,5.3
		c-7.1,13.6-15.5,26.3-25.2,38.2c-1.3,1.7-2,1.5-2.6-0.4c-7-19.8-17.7-37.3-31.3-53.2c-10.1-11.8-21.5-21.9-34.6-30.3
		C504.3,435.2,503.5,434.5,502.6,433.8z"/>
	<path class="st1" d="M417,334.3c-2.6,0-5.3,0.1-7.9,0.1c0.5-2.3,0.1-4.5,0-6.8c-0.3-18.6,3.7-36.4,9.7-53.8
		c9.7-27.9,24-53.1,42.9-75.8c4.4-5.2,9-10.2,13.9-15c1.2-1.2,2.2-1.4,3.9-0.8c6.6,2.4,13,5.1,19.7,8c-2.6,2.9-5.7,4.9-8.5,7.2
		c-11.8,9.9-22.4,20.8-32,32.8c-13.5,16.8-24.6,35-32.4,55.1c-5.7,14.7-9.6,29.8-9.5,45.7C416.8,332.2,416.9,333.2,417,334.3z"/>
	<path class="st1" d="M361.8,333.7c-2.9,1.5-6,0.3-8.9,0.7c0.4-1.4-0.5-2.2-1.2-3.2c-15.6-23.6-24.5-49.7-29.7-77.3
		c-3.2-16.9-4.1-34-3.4-51.2c0.1-3.7,0.7-7.4,1-11.2c0.1-1,0.5-1.6,1.4-2c5.9-2.3,11.7-4.7,17.6-7.1c1.8-0.7,2.5-0.3,2.2,1.8
		c-3,18.3-4,36.7-3.2,55.1c1.1,26.2,5.1,52,15.3,76.4c2.2,5.4,4.9,10.5,8,15.5C361.2,332.1,361.9,332.7,361.8,333.7z"/>
	<path class="st1" d="M385.5,433.4c2.4,0,4.8,0.1,7.1,0.1c-15.1,16.8-33.6,29.2-53.7,39.2c-21.8,10.8-44.7,18.3-68.7,22.2
		c-12.1,2-24.3,2.9-36.5,2.5c-3.1-0.1-5.3-0.9-6.9-3.8c-3.5-6.4-7.1-12.7-10.3-19.8c4.3,0.9,8.2,1.7,12.2,2.4
		c16.2,2.8,32.5,2.9,48.9,1.3c17-1.7,33.5-5.3,49.6-10.8c19.2-6.5,37.1-15.5,53.2-28C382.1,437.2,384.7,436.2,385.5,433.4z"/>
	<path class="st1" d="M483.3,334.4c-4.6-0.3-9.2,0.6-13.7-0.5c5.2-5.7,11.5-10.2,17.7-14.7c18.6-13.4,39-23.5,60.8-30.7
		c14.5-4.8,29.5-8,44.7-9.6c1.2-0.1,2.2,0,2.8,1.2c3.5,6.4,6.9,12.8,9.6,20c-3.1,0-6-0.1-8.8,0c-20.9,0.5-41.3,4.4-61.4,10.3
		c-17,5-33.3,11.7-48.5,21C485.3,332.2,483.4,332.4,483.3,334.4z"/>
	<path class="st1" d="M420.4,433.5c0.8,0,1.7,0,2.5,0c1.6,11.7,2.2,23.4,1.6,35.1c-1.3,27.5-7.6,53.8-19,78.8
		c-7.1,15.6-16.1,30.1-26.8,43.4c-2.2,2.7-4.3,3.7-7.8,2.8c-4.5-1.3-9.2-2.1-13.8-3.2c-1-0.2-2.5-0.1-2.8-1.2
		c-0.2-1.1,1.2-1.7,2-2.4c12-10.8,21.8-23.3,30.5-36.8c15.3-23.8,26.2-49.5,31.6-77.3c2.3-11.7,3.1-23.4,2.5-35.3
		C420.9,436.2,420.6,434.9,420.4,433.5z"/>
	<path class="st1" d="M463.5,433.8c3-0.7,6.1-0.2,9.1-0.3c0.9,1.9,2.8,3.1,4.2,4.5c22.6,21.3,38.3,47.1,49.2,76
		c4.5,11.8,7.7,24,9.9,36.4c0.5,3,0.4,5.5-2.8,7.3c-4,2.3-7.8,5-11.6,7.6c-2.2,1.5-2.5,0.7-2.6-1.5c-0.4-17-3.5-33.7-8.3-50
		c-6.6-22.6-16.4-43.7-30.8-62.5c-4.5-5.9-9.3-11.5-15.1-16.2C464.2,434.8,463.9,434.2,463.5,433.8z"/>
	<path class="st1" d="M202.2,433.5c32.4,0,64.7,0,97.1,0c17.3,0,34.5-0.1,51.8,0c1.1,0,2.4-0.3,3.4,0.4c-4.5,2.7-9.6,4-14.6,5.4
		c-18.4,5.4-37.2,8.4-56.5,9.2c-23.3,0.9-46-1.8-68.3-8.7c-3.5-1.1-6.8-2.6-10.3-3.8C203.7,435.5,202.6,434.9,202.2,433.5z"/>
	<path class="st1" d="M247.5,333.7c-5.9,0.7-11.7,0.1-17.6,0.3c-3.9,0.1-7.8-0.2-11.7,0.3c-0.2-2.1-2-2.8-3.3-3.9
		c-2.9-2.5-5.2-5.4-7.5-8.3c-0.8-1-1.2-2-0.8-3.3c2.6-7.9,5.4-15.6,9-23.3c2.2,2.4,3.2,5.3,4.7,7.9c6.6,11.1,14.8,20.6,25.1,28.3
		C246.1,332.3,247.2,332.6,247.5,333.7z"/>
	<path class="st1" d="M616.8,334.3c-13.7,0-27.4,0.1-41,0.1c-12.4,0-24.8,0-37.2,0c-1,0-2.2,0.4-3.1-0.5c5.9-3.2,12.4-4.7,18.9-6.4
		c13.7-3.4,27.7-4.8,41.8-4.2c5.4,0.2,10.8,0.6,16.1,1.6c1.5,0.3,2.2,0.8,2.6,2.3C615.4,329.6,616.1,331.9,616.8,334.3z"/>
	<path class="st1" d="M600.4,433.8c5.4-0.7,10.8-0.2,16.2-0.3c-1,3.5-1.9,6.9-3,10.8C609.4,440.1,604.7,437.2,600.4,433.8z"/>
	<path class="st2" d="M230.3,350c9.5,0,19,0.1,28.4-0.1c2.2,0,2.9,0.6,2.8,2.8c-0.1,6.5-0.2,13,0,19.5c0.1,2.4-0.5,3.2-3.1,3.2
		c-9.9-0.2-19.7-0.1-29.6-0.1c-0.7,0-1.4-0.1-2.1,0c-1.5,0.1-2.5,0.9-2.4,2.4c0,1.7,1.3,1.7,2.5,1.7c8.6,0,17.2,0,25.8,0
		c5.7,0,8.3,2.6,8.3,8.4c0,7.5,0,15,0,22.5c0,4.3-2.9,7.2-7.3,7.2c-19.1,0-38.1,0-57.2,0.1c-2.2,0-2.6-0.8-2.6-2.7
		c0.1-6.7,0.1-13.4,0-20.1c0-2.1,0.6-2.7,2.7-2.7c10,0.1,19.9,0,29.9,0c0.7,0,1.4,0.1,2.1-0.1c1-0.3,2.3-0.6,2.4-1.9
		c0.1-1.5-1.2-1.7-2.4-2c-3-0.7-6.1-0.4-9.1-0.4c-6-0.1-12,0-18.1,0c-4.3,0-7.4-3.2-7.4-7.5c0-7.4,0-14.8,0-22.2c0-5.4,2.5-8,7.9-8
		C211.4,350,220.9,350,230.3,350z"/>
	<path class="st2" d="M473.3,383.5c0.2,0.8,0.7,1,1.1,1.2c4,1.4,5.9,4.3,5.9,8.3c0.1,7.7,0,15.4,0.1,23.1c0,1.7-0.7,2.2-2.3,2.2
		c-8.2-0.1-16.4-0.1-24.6,0c-1.7,0-2.2-0.6-2.2-2.2c0.1-5.8,0.1-11.7,0-17.5c-0.1-4.8-1.7-6.3-6.3-6.8c-2-0.2-2.8,0.3-2.8,2.5
		c0.1,7,0,14,0.1,21c0,2.1-0.3,3-2.7,2.9c-7.8-0.1-15.6-0.1-23.4,0c-1.7,0-2.4-0.4-2.4-2.3c0.1-21.1,0.1-42.3,0-63.4
		c0-1.9,0.7-2.6,2.6-2.5c18.3,0.1,36.5,0,54.8,0.1c6.1,0,9.7,3.7,9.6,9.8c-0.1,5.4-0.3,10.8-0.5,16.3
		C480.2,379.7,477.8,382.2,473.3,383.5z M451.5,375.6c0-2.6-2.1-4.7-4.7-4.7c-2.6,0-4.7,2.1-4.7,4.7c0,2.6,2,4.6,4.7,4.6
		C449.5,380.2,451.4,378.3,451.5,375.6z"/>
	<path class="st2" d="M407.8,380.9c0,9.2,0,18.4,0,27.5c0,6.1-3.3,9.2-9.3,9.2c-16.4,0-32.8-0.2-49.2,0.1c-4.8,0.1-9-3.9-9-8.6
		c-0.1-19.1,0-38.1-0.1-57.2c0-1.6,0.6-2,2.1-2c8.5,0,17,0,25.5,0c1.4,0,2,0.3,2,2c-0.2,11.6-0.2,23.3-0.2,34.9c0,3.3,2,5.5,4.9,5.5
		c2.4-0.1,3.8-1.9,3.8-5.3c0.2-11.4-0.3-22.9,0.3-34.3c0.1-2.3,0.8-2.8,2.9-2.8c7.8,0.1,15.6,0.1,23.4,0c2.2,0,2.9,0.6,2.9,2.8
		C407.7,362.1,407.8,371.5,407.8,380.9z"/>
	<path class="st2" d="M326.6,383.3c1.9,0.8,3.2,1.1,4,1.8c2.2,1.7,3.6,3.7,3.6,6.7c-0.2,7.8-0.1,15.6,0,23.4c0,1.9-0.5,2.6-2.5,2.5
		c-8-0.1-16-0.1-24,0c-2,0-2.5-0.7-2.5-2.5c0.1-4.5,0.1-9.1,0-13.6c-0.1-4.8-3.7-7.2-8.2-5.7c-1.4,0.5-1,1.6-1,2.4
		c0,5.6-0.1,11.3,0,16.9c0,1.8-0.4,2.6-2.4,2.6c-8-0.1-16-0.1-24,0c-1.8,0-2.6-0.4-2.6-2.4c0.1-21,0.1-42.1,0-63.1
		c0-1.7,0.6-2.2,2.2-2.2c8.2,0.1,16.4,0.1,24.6,0c1.7,0,2.2,0.6,2.2,2.3c-0.1,5.4,0,10.9-0.1,16.3c0,1.8,0.5,2.4,2.4,2.4
		c5.4,0.1,6.9-1.3,6.9-6.7c0-3.9,0.1-7.9,0-11.8c0-1.7,0.3-2.4,2.3-2.4c8.3,0.1,16.6,0.1,24.9,0c1.9,0,2.3,0.7,2.2,2.4
		c-0.1,6.5-0.1,13,0.1,19.5C334.8,377.3,333.7,381.8,326.6,383.3z"/>
	<path class="st2" d="M486.4,384.2c0-10.4,0.1-20.7,0-31.1c0-2.4,0.6-3.2,3.1-3.2c18.9,0.1,37.7,0.1,56.6,0.1c4.1,0,6.5,1.9,7.4,5.8
		c0.3,1.2,0.5,2.5,0.5,3.8c0,10.5,0.1,20.9,0,31.4c0,6.1-3.4,9.4-9.6,9.4c-8.8,0-17.6,0-26.3-0.1c-2.1,0-2.7,0.6-2.6,2.7
		c0.2,4.2-0.1,8.5,0,12.7c0.1,2-0.7,2.5-2.5,2.5c-8-0.1-16-0.1-24,0c-2.3,0-2.9-0.7-2.8-2.9c0.2-2.2,0-4.3,0-6.5
		c0-8.2,0-16.4,0-24.6C486.2,384.2,486.3,384.2,486.4,384.2z M519.9,370.8c-2.1,0-4.4,2.2-4.5,4.3c-0.1,2.1,2.2,4.3,4.4,4.4
		c2.4,0,4.3-1.8,4.3-4.3C524.1,372.8,522.3,370.9,519.9,370.8z"/>
	<path class="st2" d="M560.1,371.1c0-6.2,0.1-12.4,0-18.7c0-1.9,0.6-2.5,2.5-2.5c8.2,0.1,16.4,0.1,24.6,0c1.8,0,2.4,0.5,2.4,2.4
		c-0.1,7.3,0,14.6,0,21.9c0,3.6,1.7,5.7,4.6,5.7c2.5,0,4.1-2.2,4.1-5.8c0-7.2,0.1-14.4,0-21.6c0-1.8,0.3-2.7,2.4-2.6
		c8.4,0.1,16.8,0.1,25.2,0c1.8,0,2.4,0.5,2.4,2.3c-0.2,11.7-0.2,23.5-0.4,35.2c-0.2,7.1-4,10.9-11.1,11.8c-6.2,0.8-6.2,0.8-6.2,7
		c0,3.3-0.1,6.5,0,9.8c0,1.5-0.4,2.1-2,2.1c-9.7-0.1-19.4-0.1-29,0c-1.7,0-1.9-0.8-1.9-2.2c0-4.5-0.1-9.1,0.1-13.6
		c0.1-2.2-0.7-2.8-2.7-2.6c-1.4,0.1-2.8,0-4.1,0c-6.9,0-10.5-3.7-10.5-10.6C560.1,383.2,560.1,377.2,560.1,371.1z"/>
	<path class="st1" d="M451.5,375.6c0,2.7-2,4.6-4.7,4.6c-2.7,0-4.7-2-4.7-4.6c0-2.6,2.2-4.7,4.7-4.7
		C449.4,370.9,451.5,373,451.5,375.6z"/>
	<path class="st1" d="M519.9,370.8c2.4,0,4.2,2,4.2,4.4c0,2.4-1.9,4.3-4.3,4.3c-2.2,0-4.5-2.3-4.4-4.4
		C515.5,373,517.8,370.8,519.9,370.8z"/>
</g>
</svg>
