<?xml version="1.0" encoding="utf-8"?>
<!-- Generator: Adobe Illustrator 26.3.1, SVG Export Plug-In . SVG Version: 6.00 Build 0)  -->
<svg version="1.1" id="Layer_1" xmlns="http://www.w3.org/2000/svg" xmlns:xlink="http://www.w3.org/1999/xlink" x="0px" y="0px"
	 viewBox="0 0 74 76" style="enable-background:new 0 0 74 76;" xml:space="preserve">
<style type="text/css">
	.st0{fill:#FFFFFF;stroke:#4147D5;stroke-width:8;}
</style>
<path class="st0" d="M58,36.9L58,36.9l-7.1-5.1L68.3,15c0,0,0,0,0,0c1.2-1.2,1.9-2.8,1.7-4.5l0,0c-0.1-1.2-0.6-2.4-1.4-3.3
	c-1.6-2-4.4-2.7-6.8-1.5l0,0l0,0c0,0-0.1,0-0.1,0.1c0,0,0,0,0,0c0,0,0,0,0,0l0,0l-26.3,13l0,0l-16.3,8l0,0c-1.8,0.9-3,2.7-3.2,4.7
	l0,0c-0.2,2,0.7,3.9,2.4,5.1c0,0,0,0,0,0l8,5.8L5.7,62.2c0,0,0,0,0,0c-2,2-2.3,5.2-0.6,7.5C6.2,71.2,7.9,72,9.7,72
	c0.9,0,1.9-0.2,2.7-0.7l0,0l26.5-14.6l0,0l18.5-10.2c0,0,0,0,0,0c0,0,0,0,0,0c1.7-1,2.8-2.7,3-4.7l0,0C60.5,39.9,59.6,38,58,36.9z
	 M11.3,67.9L11.3,67.9L11.3,67.9z"/>
</svg>
