<svg width="74" height="76" viewBox="0 0 74 76" fill="none" xmlns="http://www.w3.org/2000/svg">
<path d="M58.021 36.8792L58.0208 36.8791L50.9089 31.7341L68.2532 14.9568C68.2532 14.9568 68.2532 14.9568 68.2532 14.9567C69.4724 13.7774 70.1063 12.1176 69.9854 10.426L69.985 10.4202C69.8953 9.19137 69.4139 8.02465 68.6127 7.09338C66.9966 5.11862 64.1928 4.40116 61.7664 5.54445L61.7435 5.55522L61.7268 5.56334C61.6802 5.58518 61.6423 5.60383 61.616 5.61691C61.5968 5.6265 61.5801 5.63493 61.5713 5.63942C61.5703 5.6399 61.5695 5.64034 61.5687 5.64073L61.5684 5.64087L35.2278 18.6572L35.2277 18.6573L18.9472 26.7013L18.9432 26.7033C17.1405 27.5965 15.9447 29.369 15.7788 31.3646L15.7782 31.3721C15.6171 33.3545 16.4924 35.3012 18.1298 36.4854C18.1299 36.4855 18.1301 36.4856 18.1302 36.4857L26.1278 42.2703L5.73112 62.1644C5.73067 62.1649 5.73022 62.1653 5.72977 62.1657C3.6864 64.1582 3.42485 67.348 5.09749 69.6466C6.20688 71.1738 7.94671 72 9.71497 72C10.6597 72 11.6014 71.7647 12.4537 71.2991L12.4649 71.293L38.9296 56.7266L38.9296 56.7266L57.4229 46.5479C57.4243 46.5471 57.4258 46.5463 57.4272 46.5455C57.4273 46.5455 57.4274 46.5454 57.4275 46.5454C59.1612 45.5921 60.2611 43.8201 60.3811 41.8767L60.3816 41.869C60.4982 39.9196 59.6156 38.0329 58.021 36.8792ZM11.3156 67.8927L11.3165 67.8918L11.3156 67.8927Z" fill="#D7DFFF" stroke="#4147D5" stroke-width="8"/>
</svg>
