<svg width="90" height="75" viewBox="0 0 90 75" fill="none" xmlns="http://www.w3.org/2000/svg">
<path d="M6.19442 63.8742C13.4526 68.3752 22.0672 71 31.2914 71C61.1395 71 78.3505 46.9376 78.4597 24.6416C81.0815 22.5237 83.3917 20.0285 85.2995 17.2446C86.3071 15.7744 86.2203 13.8149 85.0867 12.4394C84.6348 11.8911 84.0599 11.4883 83.4283 11.2471C83.5438 10.948 83.6519 10.6454 83.7523 10.3393C84.2697 8.76267 83.76 7.03031 82.4711 5.98517C81.1823 4.94004 79.382 4.79918 77.9463 5.63114C75.9351 6.79656 73.762 7.72264 71.4787 8.34336C68.1568 5.63109 63.9032 4 59.2645 4C48.8544 4 40.6605 12.0903 40.1081 21.8102C30.5104 20.203 22.1298 15.2215 16.2569 8.14655C15.4266 7.14636 14.1621 6.61198 12.8662 6.71367C11.5703 6.81536 10.4046 7.54042 9.74053 8.65787C6.61377 13.9192 6.35666 20.168 8.6128 25.4994C7.62459 26.2268 7.01752 27.3754 6.98587 28.6186C6.85421 33.7912 8.9899 38.7094 12.6045 42.2727C12.2538 43.1355 12.2098 44.1081 12.5072 45.0199C13.8728 49.2062 16.6676 52.7438 20.3172 55.0847C16.6182 56.3369 12.6399 56.7803 8.62897 56.3491C8.43125 56.3192 8.2308 56.3039 8.02926 56.3039H8C5.87891 56.3039 4.12661 57.9596 4.00643 60.0773C3.91389 61.7078 4.81364 63.1756 6.19442 63.8742Z" fill="#D7DFFF" stroke="#4147D5" stroke-width="8" stroke-linejoin="round"/>
</svg>
