<svg width="76" height="76" viewBox="0 0 76 76" fill="none" xmlns="http://www.w3.org/2000/svg">
<path d="M50.2083 65.6111L14.2014 14.3542L12.0833 11.8125H23.9444L61.6458 65.6111H50.2083Z" fill="white"/>
<path fill-rule="evenodd" clip-rule="evenodd" d="M67.9056 68.5414C67.7602 68.8231 67.4698 69 67.1528 69H66.3056C66.2894 69 66.2733 68.9995 66.2574 68.9986V68.9998H49.1152C48.5629 68.9998 48.0453 68.7306 47.7281 68.2785L33.2705 47.672L15.0446 68.4235C14.7229 68.7898 14.259 68.9998 13.7715 68.9998H8.69447C8.02899 68.9998 7.42513 68.6102 7.15075 68.004C6.87637 67.3977 6.98229 66.6869 7.42152 66.187L29.0166 41.607L7.30742 10.6677C6.94432 10.1502 6.89948 9.47365 7.1911 8.91277C7.48272 8.3519 8.06231 8 8.69447 8H25.8367C26.389 8 26.9066 8.26916 27.2238 8.72128L40.8454 28.1369L58.0407 8.57573C58.3624 8.20976 58.8261 8 59.3134 8H64.3904C65.0559 8 65.6598 8.38953 65.9341 8.99579C66.2085 9.60206 66.1026 10.3128 65.6634 10.8128L44.5408 34.857L67.8435 67.6621C68.0271 67.9206 68.051 68.2598 67.9056 68.5414ZM51.5079 62.0458H56.018L22.5314 15.1382H17.8544L51.5079 62.0458Z" fill="#4147D5"/>
</svg>
