<?xml version="1.0" encoding="UTF-8"?>
<svg id="Layer_1" data-name="Layer 1" xmlns="http://www.w3.org/2000/svg" version="1.1" viewBox="0 0 16 16">
  <defs>
    <style>
      .cls-1 {
        fill: #ff4468;
      }

      .cls-1, .cls-2 {
        stroke-width: 0px;
      }

      .cls-2 {
        fill: #fff;
      }
    </style>
  </defs>
  <g>
    <path class="cls-1" d="M8,15.4c-4.1,0-7.4-3.3-7.4-7.4S3.9.6,8,.6s7.4,3.3,7.4,7.4-3.3,7.4-7.4,7.4Z"/>
    <path class="cls-2" d="M8,.9c3.9,0,7.1,3.2,7.1,7.1s-3.2,7.1-7.1,7.1S.9,11.9.9,8,4.1.9,8,.9M8,.2C3.7.2.2,3.7.2,8s3.5,7.8,7.8,7.8,7.8-3.5,7.8-7.8S12.3.2,8,.2h0Z"/>
  </g>
  <circle class="cls-2" cx="8" cy="8" r="2.8"/>
</svg>