<?xml version="1.0" encoding="utf-8"?>
<!-- Generator: Adobe Illustrator 26.3.1, SVG Export Plug-In . SVG Version: 6.00 Build 0)  -->
<svg version="1.1" id="Layer_1" xmlns="http://www.w3.org/2000/svg" xmlns:xlink="http://www.w3.org/1999/xlink" x="0px" y="0px"
	 viewBox="0 0 1213.3 1213.3" style="enable-background:new 0 0 1213.3 1213.3;" xml:space="preserve">
<style type="text/css">
	.st0{fill:#AAFC0D;enable-background:new    ;}
	.st1{fill:#4147D5;}
	.st2{fill:#9D9DC6;}
	.st3{fill:none;stroke:#4147D5;stroke-width:20;stroke-linecap:round;stroke-miterlimit:10;}
</style>
<g>
	<g>
		<path d="M896.8,820.4c-0.2-0.1-0.3-0.2-0.5-0.3c0.1,0,0.2,0,0.2-0.1C896.7,820.1,896.8,820.3,896.8,820.4z"/>
		<path d="M896.8,820.4c-0.2-0.1-0.3-0.2-0.5-0.3c0.1,0,0.2,0,0.2-0.1C896.7,820.1,896.8,820.3,896.8,820.4z"/>
		<path d="M681.7,687.9L681.7,687.9C681.8,687.8,681.8,687.8,681.7,687.9C681.8,687.9,681.7,687.9,681.7,687.9z"/>
		<path d="M681.8,687.8L681.8,687.8L681.8,687.8L681.8,687.8z"/>
	</g>
</g>
<g>
	<g>
		<g>
			<path class="st0" d="M409.5,718.7c11.2,12.5,20.2,26.6,20.1,43c-0.1,19.9-10.9,33.6-25.5,39.6c4.2,7.2,6.8,15.3,6.2,24.9
				c-1.4,27.2-24.7,40.5-48.2,38.5c-8,21.4-37.5,36.1-59.7,15.7c-16.4-15-32.8-30-49.1-45.1c-22.4-20.5-6.5-54.9,19.7-60.3
				c-7-8.4-13.2-17.5-18.1-27.5c-9.1-18.7-3.1-48.4,21.4-52.5c3.5-0.6,7-1,10.3-1.2c-6.3-6.6-12.5-13.3-18.8-19.9
				c-17.8-18.8-11.2-53.3,15.8-59.7c9.6-2.3,18.1-2.3,26.3-0.7c-4-8.5-7.4-17.4-10-26.6c-4.1-14.4,2.5-33.4,16.4-40.3
				c2.8-1.4,5.6-2.7,8.4-3.7c-1.5-5.3-2.9-10.8-4-16.2c-9.1-45,59.8-64.1,68.9-19c4.6,22.9,13.1,41.8,26.9,60.7
				c12.6,17.4,1,44.5-18,51.5c2.3,2.9,4.6,5.8,7,8.7c17.9,22,38.6,47.2,20.3,75.8C421.9,710.5,416.1,715.6,409.5,718.7z"/>
			<path class="st0" d="M980.7,789.9c-2.1,7.9-9.5,42.4-42.5,58.8c-21.3,10.6-41.3,7.8-47.4,6.9c-5.9-0.9-19.3-3.1-32.6-12.8
				c-23-16.8-25.2-41.2-24.7-43.4c0,0,0,0,0-0.1c0.9-3.1-0.3-6.4-3-8.2c-15.5-10.7-26.3-28-28.6-47.1c-2-16.8,2.8-33.2,12.9-45.2
				c2.7-3.2,2.3-8.1-1-10.7c-1.2-0.9-2.3-1.9-3.5-3c-5.8-5.4-17.6-22.8-13.4-35.4c2.8-8.2,9.7-7.5,25.8-18.2
				c24-16,22.2-26.8,36-29.6c19.8-4.1,40.6,14.3,43.4,24.6c1.2,4.2,1.5,8.3,1.2,12.1c-0.2,2.7,1,5.4,3.3,6.8c4,2.5,7.7,5.3,11.2,8.4
				c16.5,14.7,26.9,35.4,28.7,57.5c0.4,5.2,0.3,10.5-0.5,15.6c-0.5,3.5,1.4,6.8,4.7,8.1C973.3,743.9,988,762.5,980.7,789.9z"/>
			<path class="st1" d="M811,479.6c-25.3-9.2-58.8-4.4-69.2-2.8c-34.1,5.2-57.6,10.1-83.8,22.7c-9.2,4.4-17,8.7-18.4,16
				c-2,9.7,8.1,19,26,35.2c7.1,6.4,22.2,19.3,45.5,31.4c22.6,11.8,30.9,11.4,36.2,10.2c5.1-1.1,9.8-3.6,18.2-11
				c12.1-10.7,21.3-22.4,39.4-53.3c15.5-26.4,18.9-35.1,15.1-41.7C817.8,482.2,813.5,480.5,811,479.6z"/>
			<path class="st2" d="M786.9,527.6c-7.8,15.5-16.7,25.6-23.7,32.2c-13.2,12.5-20.3,13.1-22.6,13.2c-3.9,0.2-7-0.8-13.4-3.5
				c-18.2-7.7-29.9-16-29.9-16c-22-15.5-33-23.3-31.8-30.8c0.5-3,2.9-6.8,25.1-14.8c16.3-5.9,44-14.5,82.5-13.9
				c10.9,0.2,18,1,21,5.9C797.8,505.9,793.5,514.5,786.9,527.6z"/>
			<g>
				<g>
					<path d="M896.2,750.9c-0.2-0.1-0.3-0.2-0.5-0.3c0.1,0,0.2,0,0.2-0.1C896.1,750.6,896.2,750.8,896.2,750.9z"/>
					<path d="M896.2,750.9c-0.2-0.1-0.3-0.2-0.5-0.3c0.1,0,0.2,0,0.2-0.1C896.1,750.6,896.2,750.8,896.2,750.9z"/>
					<circle class="st1" cx="622" cy="467.4" r="21.4"/>
					<circle class="st1" cx="825.2" cy="450.7" r="16.7"/>
					<path d="M681.2,618.5L681.2,618.5C681.3,618.3,681.3,618.3,681.2,618.5L681.2,618.5z"/>
					<path d="M681.3,618.3L681.3,618.3L681.3,618.3L681.3,618.3z"/>
				</g>
				<path class="st3" d="M912.8,393c-3,31.4-16.5,127.3-95,205c-127.6,126.2-308.9,87.1-322,84"/>
				<path class="st3" d="M311.8,395c-11.9,27.8-27.9,66.7-45,114c-18.3,50.6-27.5,75.9-36,111c-11.9,49.1-24.8,102.3-14,168
					c9.7,58.9,30.5,84.5,36,91c9.2,10.9,26.2,30.3,55,38c44.4,12,82.1-13.3,89-18c16.1-10.8,37.8-31.2,54-79
					c36.2-106.9-1.6-229.7-16-271"/>
				<path class="st3" d="M896.8,562c45,42.7,67.1,86.3,78,113c14.8,36.4,42.4,103.5,12,156c-4.3,7.4-17.2,28.9-44,41
					c-27.7,12.4-53.4,7.2-59,6c-2.9-0.6-10.6-2.6-20-7c-31.4-14.8-47.9-42.4-56-56c-32.8-54.9-30.9-122.6-30-141"/>
			</g>
		</g>
		<path class="st3" d="M740.2,585.4c-2.8,7.6-6.9,12.3-10,15c-14,12.5-38.2,12.7-61,1"/>
	</g>
	<path class="st1" d="M381.9,746.6c-5.6-0.7-8.1-8.8-12.9-18.1c-3.2-6.3-8.5-15-17-24.7c0.7,4.3,1.4,10.6,1,18.2
		c-0.3,6.1-1.3,10.5-2.9,18c-5.2,23.8-5.4,22.9-5.7,25.5c-3.5,28.5,31.9,48.3,24,63.2c-0.3,0.5-2.1,3.9-4.8,4.1
		c-8.6,0.7-17.4-29.8-18.2-33c-2.6-9.3-3.7-17.2-4.2-22.2c-2.8,7.1-26.7,68.2-30.1,74.7c-2.8,5.5-10.7,0.1-7.9-5.3
		c10.2-19.6,18.8-40.1,25.6-61.1c1.1-3.5,2.2-6.9,3.2-10.4c-10.6,6.3-19.4,12.7-26.3,18.4c-14.9,12.1-22.6,21.5-28.5,19
		c-3-1.3-5-5.5-4.5-8.9c1.2-7.5,14-7.9,33.4-17.9c12.6-6.5,23-11.8,29.2-22.9c2-3.6,3-6.8,6.3-29.3c1.7-12,3-22.2,4-29.7
		c-6.6,1.5-15.3,4.3-24.1,10.2c-16.7,11.2-22.9,26.5-29.2,24.5c-3.2-1-5.4-6.1-4.9-10.4c1.2-9.7,16.6-15.8,35.7-23.5
		c12.7-5.1,17.3-5.6,21.1-11.1c4-5.9,3.6-12.2,2.9-22.4c-0.6-8.9-1.4-22.9-2.3-41.8c-38.2,35.9-49.4,42.3-51.7,40.2
		c-1.9-1.6,1.7-8.8,2.1-9.7c3.8-7.6,9.6-11.2,20.8-18.3c20.5-12.9,26.6-16.9,27.6-23.9c0.4-2.5-0.1-4.1-0.7-7c0,0-5.4-25.1-0.6-60.8
		c0.4-2.6,1.1-7.6,4.9-10.2c2.5-1.7,5.6-1.9,8.1-1.1c6.6,2.2,9.9,12.2,6.7,16.6c-1.7,2.3-5.5,3.5-7.5,2.1c-1.8-1.2-2.2-4.5-1.5-6.8
		c0.6-2,1.8-2.7,1.4-4c-0.4-1.1-1.9-2.1-3-1.8c-1.5,0.3-2.7,2.6-3.5,9.1c-4.8,37,6.7,62.3,6.7,62.3c2.1,4.6,4.6,10.1,9.5,16.7
		c15.9,21.7,36.9,27.7,35,35c-0.7,2.5-3.7,4-5.8,4.2c-6.2,0.8-11.3-8-19.4-18.6c-4.6-6-11.6-14.3-21.5-23.6c1.4,7.4,3.2,18.5,3.7,32
		c0.8,19.3-1.8,19.5-0.4,27.9c5,29.3,39.1,42.2,34.5,52.4C389,745.3,384.8,747,381.9,746.6z"/>
	<path class="st1" d="M954.2,777.8c-2.1,1.7-5.3,0.8-6.8,0.4c-9.1-2.6-12.7-11.3-19.7-17.6c-4.2-3.8-11.2-8.1-23.2-9.7
		c4.5,13.2,8.2,25.1,11.4,35.5c8.2,27.5,9.2,35.3,5.5,38.2c-2.8,2.2-8,1.4-10.7-1.2c-4.2-4-2.2-12.5-1.5-15.4
		c2-9.7,1-25.6-12.4-52.2c-13.1,17.4-16.8,31.9-17.6,42.2c-0.7,8.8,0,21.3-6.1,24.1c-2,0.9-5.2,1-7.2-0.6c-2.1-1.8-2.3-5.1-2-7.9
		c1.2-13.5,12.1-32.5,13.1-34.2c10.5-18.3,15.7-27.5,14.5-37.3c-1.5-12.7-10.7-15.4-19.4-38.3c-2.5-6.6-3.9-12.2-4.8-15.8
		c-12.1,22.4-17.5,38.4-20.1,49.3c-1.1,4.6-3.5,15.8-9,16.7c-2.1,0.3-4.6-0.8-5.8-2.7c-3.5-5.3,4.9-13.7,16-34.7
		c4.7-9,11.9-24,12-33.5c0.1-4.1,3-9.5,0.2-13.5c-3.2-4.6-9.5-2.7-11.5-6.4c-3-5.7,7.5-19.3,12.7-17.8c3,0.8,4.6,6.4,7.4,16.2
		c0.2,0.6,0.6,1.5,0.6,2.7c0,0,0.1,4.4,0.4,9c0.3,5.6,14.5,9.2,33.9,15.6c13.3,4.4,21.1,7.4,21.4,11.8c0.1,1.1-0.2,3.3-1.7,4.4
		c-1.7,1.3-4.2,0.8-6.1,0.1c-8.4-2.7-15.8-10-15.9-10.1c-4.6-4.6-12.9-9.8-28.8-11.2c1.6,4.9,4,11.9,7.7,20
		c7.6,16.6,12.2,26.8,22.2,34.8c4.9,3.9,3.5,1.2,31.1,14.6c12,5.8,21.1,10.7,22,17.8C956,772,956.5,776,954.2,777.8z"/>
</g>
</svg>
