<?xml version="1.0" encoding="UTF-8"?>
<svg id="Layer_1" data-name="Layer 1" xmlns="http://www.w3.org/2000/svg" version="1.1" viewBox="0 0 1213.3 1213.3">
  <defs>
    <style>
      .cls-1 {
        fill: #000;
      }

      .cls-1, .cls-2, .cls-3 {
        stroke-width: 0px;
      }

      .cls-2 {
        fill: #4247d5;
      }

      .cls-3 {
        fill: #e7e7ec;
      }
    </style>
  </defs>
  <g>
    <path class="cls-3" d="M492.2,774.7l-22.9-101.8,38.2,99.2,28,15.3,134.8-12.7,76.3-28,84-96.7,35.6-117-2.4-15.5c-1.8-11.8-5.7-23.2-11.4-33.6l-6.6-12-35.6-15.3-28,2.5-5.1,38.2-10.2,12.7-20.4-5.1-7.6-15.3,5.1-22.9,25.4-10.2-2.5-17.8-28-38.2-43.2-28h-50.9l-50.9,17.8-33.1,33.1,17.8,22.9,5.1,28-17.8,10.2-17.8-10.2v-22.9l2.5-22.9-71.2,2.5-48.3,28-33.3,37.4c-5,5.6-9.3,11.7-12.9,18.2l-20,36-68.7,185.7-10.2,142.5,43.2,71.2,58.5,28,53.4-20.4,40.7-71.2,10.2-111.9Z"/>
    <path class="cls-2" d="M603.9,624.3c9.6,0,17.3-7.7,17.3-17.3s-7.7-17.3-17.3-17.3-17.3,7.7-17.3,17.3,7.7,17.3,17.3,17.3Z"/>
    <path class="cls-2" d="M603.9,645.2c-20.9,0-38.2-16.8-38.2-38.2s16.8-38.2,38.2-38.2,38.2,16.8,38.2,38.2-16.8,38.2-38.2,38.2ZM603.9,603.9c-1.5,0-3.1,1.5-3.1,3.1s1.5,3.1,3.1,3.1,3.1-1.5,3.1-3.1-1-3.1-3.1-3.1Z"/>
    <path class="cls-2" d="M770.3,607c7.6,0,13.7-6.1,13.7-13.7s-6.2-13.7-13.7-13.7-13.7,6.2-13.7,13.7,6.1,13.7,13.7,13.7Z"/>
    <path class="cls-2" d="M770.2,627.3c-18.8,0-34.1-15.3-34.1-34.1s15.3-34.1,34.1-34.1,34.1,15.3,34.1,34.1-15.3,34.1-34.1,34.1ZM770.2,586.6c-3.6,0-6.6,3.1-6.6,6.6s3.1,6.6,6.6,6.6,6.6-3.1,6.6-6.6c.5-3.6-2.5-6.6-6.6-6.6Z"/>
    <path class="cls-2" d="M585,818.2c-39.7,0-67.7-6.1-73.3-7.1-7.6-1.5-13.7-6.1-17.8-12.7-4.1-6.6-5.1-14.2-3.6-21.9,1.5-7.6,6.1-13.7,12.7-17.8,6.6-4.1,14.2-5.1,21.9-3.6,4.1,1,40.2,8.6,87.5,4.6,27-2.5,51.9-8.1,75.3-17.3,28-11.2,52.9-27.5,74.3-48.3,52.9-52.4,66.1-116.5,69.2-150.1,1.5-15.8,15.8-27.5,31-25.9,15.8,1.5,27.5,15.8,25.9,31-4.1,41.2-20.4,120.6-86,185.2-26.5,26.5-58,46.8-93.1,61.1-28,11.2-59,18.3-91.1,21.4-10.7,1-21.9,1.5-33.1,1.5Z"/>
    <path class="cls-2" d="M384.6,1006.4c-9.2,0-18.3-1-27.5-3.6-32.6-8.6-51.4-31-59.5-40.2-17.3-19.8-30-51.4-36.1-88.5-9.2-59.5,2.5-106.8,12.2-148.6,7.1-30,15.3-51.4,30.5-93.6,11.7-32.1,24.4-64.1,37.6-94.6,6.1-14.8,22.9-21.4,37.7-15.3,14.8,6.1,21.4,22.9,15.3,37.6-12.7,30-24.9,61.1-36.1,91.6-14.8,40.2-21.9,60.5-28.5,88-9.7,40.2-18.8,77.8-11.2,126.2,6.1,37.7,18.3,54.9,22.9,60.5,6.1,7.1,15.3,17.8,30.5,21.9,20.9,5.6,39.7-4.6,49.4-10.7,5.1-3.6,20.9-14.2,33.1-49.9,11.2-33.1,13.7-72.8,7.6-118-3.6-27.5-11.2-57-20.9-85.5-2.5-7.1-2-14.8,1-21.9,3.1-7.1,9.2-12.2,16.3-14.8,7.1-2.5,14.8-2,21.9,1,7.1,3.6,12.2,9.2,14.8,16.3,11.2,31.5,19.3,65.1,23.4,96.2,7.1,53.9,4.1,102.3-10.2,144-12.2,36.6-30.5,62.6-55.5,79.4-14.8,10.2-39.2,22.4-68.7,22.4Z"/>
    <path class="cls-2" d="M853.2,973.8c-9.7,0-17.8-1.5-22.9-2.5-4.1-1-12.7-3.1-22.4-7.6-33.6-15.8-50.9-44.8-58.5-57-29-48.8-29.5-108.4-28.5-131.8.5-7.6,3.6-14.8,9.2-19.8,5.6-5.1,13.2-7.6,20.9-7.1,15.8,1,28,14.2,27,30-1,17.8-.5,63.6,20.4,99.2,6.1,9.7,15.8,26.5,33.6,34.6,5.1,2.5,9.2,3.6,10.2,3.6,3.6,1,16.8,3.1,30.5-3.1,9.2-4.1,16.8-11.7,22.9-21.9,17.8-30.5-1-77.3-11.2-102.3v-.5c-12.7-30.5-31.5-58.5-57-82.4-5.6-5.1-8.6-12.2-9.2-19.8,0-7.6,2.5-14.8,7.6-20.4,10.7-11.7,29-11.7,40.7-1,31,29.5,54.9,64.1,70.7,102.3v.5c6.6,15.8,16.3,39.7,20.4,65.6,5.6,33.1,1.5,62.6-12.7,86.5-12.2,20.9-28.5,36.1-48.8,45.3-13.2,6.6-27.5,9.7-42.7,9.7Z"/>
    <path class="cls-2" d="M782.5,744.3c3.1,4.6.5,9.7-1.5,17.3-6.1,23.4-.5,38.7-4.1,39.2-3.6,1-9.2-11.2-12.2-21.4-3.6-12.2-6.6-34.1,2.5-39.2,4.6-2.5,12.7-.5,15.3,4.1Z"/>
    <path class="cls-2" d="M757,517.9c-5.4,0-10.9-2-16.3-6-13.1-9.8-8.6-30.2-7-34.7,3.7-12,18-19,33.9-23.4-1-3.9-2.1-7.1-3.4-10.1-3.1-7.2-12.6-25.8-32.6-43.1-16.3-14.1-36.3-22.4-59.4-24.9-22.6-2.3-43.2,1.4-61.2,11.1-24.2,13-37.4,29.8-43.7,37.9-1,1.3-1.9,2.5-2.7,3.6,7.8,3.2,14.5,8.1,18.8,15.5,6.1,10.5,6.1,31.5-3.2,42-7.4,8.4-22.2,6.1-29.9,1.2-16.9-10.5-6.8-41.1-4.6-47.2.6-1.7,1.3-3.3,2-4.9-12.9-2.3-26.9-1.8-35-1.5-1.2,0-2.3,0-3.3.1-40.8,1.3-72.9,29.5-85,40.2-1,.9-1.8,1.6-2.5,2.2-2.3,2-5.8,1.7-7.8-.6-2-2.3-1.7-5.8.6-7.8.7-.6,1.5-1.3,2.4-2.1,12.9-11.4,47.1-41.5,91.9-42.9,1,0,2,0,3.2-.1,10.2-.4,26.4-1,41.3,2.4,1.5-2.2,3.2-4.5,5.1-6.9,6.3-8,21-26.7,47.1-40.8,20-10.8,42.7-14.9,67.5-12.4,25.4,2.7,47.4,11.9,65.5,27.5,20.9,18.1,31.2,37.2,35.5,47,1.6,3.7,2.9,7.4,4,12,5.4-1.1,10.8-2,15.8-2.7.1,0,.3,0,.4,0,33.2-2.3,49.6,18.6,55,25.5.4.6.8,1,1.1,1.4,2,2.3,1.7,5.8-.6,7.8-2.3,2-5.8,1.7-7.8-.6-.4-.4-.8-1-1.3-1.7-5-6.3-18.2-23.2-45.4-21.3-5.4.8-10.3,1.6-14.7,2.5.7,3.2,1.4,6.8,2.2,10.9,1.2,6,2.3,11.7,0,23.1-.7,3.5-3.7,9.6-7.1,13-5.9,5.9-12.3,8.9-18.9,8.9ZM770.1,464.6c-18.4,5.1-24.4,11.2-25.8,16,0,.2-.1.4-.2.6-1.1,2.6-3.6,16.7,3.3,21.9,7.5,5.6,13.9,5.1,20.8-1.8,1.8-1.8,3.8-5.9,4-7.3,1.9-9.3,1.1-13.3,0-18.8-.8-4-1.5-7.4-2.1-10.5ZM558.6,437.9c-1.2,2.2-1.9,4.1-2.6,5.8-4.9,13.4-6.6,29.9,0,34,4.7,2.9,13.2,3.8,15.9.8,5.6-6.4,5.9-22.4,1.9-29.2-3.2-5.4-8.7-9.1-15.3-11.5Z"/>
  </g>
  <g>
    <path class="cls-1" d="M896.8,820.4c-.2,0-.3-.2-.5-.3,0,0,.2,0,.2,0,.2,0,.3.3.3.4Z"/>
    <path class="cls-1" d="M896.8,820.4c-.2,0-.3-.2-.5-.3,0,0,.2,0,.2,0,.2,0,.3.3.3.4Z"/>
    <path class="cls-1" d="M681.7,687.9h0q0-.1,0,0c0,0,0,0,0,0Z"/>
    <path class="cls-1" d="M681.8,687.8h0Z"/>
  </g>
</svg>