<?xml version="1.0" encoding="utf-8"?>
<!-- Generator: Adobe Illustrator 26.3.1, SVG Export Plug-In . SVG Version: 6.00 Build 0)  -->
<svg version="1.1" id="Layer_1" xmlns="http://www.w3.org/2000/svg" xmlns:xlink="http://www.w3.org/1999/xlink" x="0px" y="0px"
	 viewBox="0 0 1213.27 1213.27" style="enable-background:new 0 0 1213.27 1213.27;" xml:space="preserve">
<style type="text/css">
	.st0{fill:#FFFFFF;}
	.st1{clip-path:url(#turqois_00000086690313372670658340000016095509065015250342_);}
	.st2{fill:#65E5E1;}
	.st3{fill:#000072;}
	.st4{fill:#AEAED6;}
	.st5{fill:none;stroke:#000072;stroke-width:20;stroke-linecap:round;stroke-miterlimit:10;}
	.st6{fill:#0BCBFF;}
	.st7{fill:#19B8DD;}
	.st8{fill:none;stroke:#000072;stroke-width:20;stroke-linecap:round;stroke-linejoin:round;stroke-miterlimit:10;}
	.st9{fill:#FFC9A4;}
	.st10{fill:#0BCBFF;stroke:#000072;stroke-width:20;stroke-linecap:round;stroke-linejoin:round;stroke-miterlimit:10;}
	.st11{fill:#CC7E4A;}
	.st12{fill:#FF4360;}
	.st13{fill:#E23456;}
	.st14{fill:#EFB892;}
	.st15{fill:#C16D34;}
	.st16{fill:#824216;}
	.st17{clip-path:url(#SVGID_00000165925275354365743940000015719020063440663700_);}
	.st18{fill:#A85924;}
	.st19{fill:#C16D34;stroke:#000072;stroke-width:10;stroke-linecap:round;stroke-linejoin:round;stroke-miterlimit:10;}
	.st20{fill:#005654;}
	.st21{fill:#0D7F79;}
	.st22{fill:#9B2446;}
	.st23{fill:#606976;}
	.st24{fill:none;}
	.st25{fill:#FF5C7B;}
	.st26{fill:#EA6642;}
	.st27{fill:#BC2A4D;}
	.st28{fill:#C94438;}
	.st29{fill:#C43961;}
	.st30{opacity:0.2;fill:#000072;}
	.st31{fill:none;stroke:#FFFFFF;stroke-width:20;stroke-linecap:round;stroke-linejoin:round;stroke-miterlimit:10;}
	.st32{fill:#C5C5EA;}
	.st33{fill:#F0F0FF;}
	.st34{fill:none;stroke:#000000;stroke-width:20;stroke-miterlimit:10;}
	.st35{opacity:0.77;fill:#C2F46C;}
	.st36{fill:#EBEBFF;}
	.st37{fill:#000072;stroke:#000072;stroke-linecap:round;stroke-linejoin:round;stroke-miterlimit:10;}
	.st38{fill:#E6E6F4;}
	.st39{fill:#EAAE86;}
	.st40{fill:#FFE8D9;}
	.st41{fill:none;stroke:#FFFFFF;stroke-width:10;stroke-linecap:round;stroke-linejoin:round;stroke-miterlimit:10;}
	.st42{fill:#F4AA78;}
	.st43{fill:#FFDF8C;}
	.st44{fill:#16C156;}
	.st45{fill:#0C003D;}
	.st46{fill:#41AAA0;}
	.st47{fill:#80D1CB;}
	.st48{opacity:0.77;fill:#E6F4CB;}
	.st49{opacity:0.77;fill:#FFFFFF;}
	.st50{fill:#EBEBFF;stroke:#000072;stroke-width:20;stroke-linecap:round;stroke-miterlimit:10;}
	.st51{fill:#D8DFFC;}
	.st52{fill:none;stroke:#000072;stroke-width:10;stroke-linecap:round;stroke-miterlimit:10;}
	.st53{fill:#C59A18;}
	.st54{fill:#F4A77F;}
	.st55{fill:#EEE5C8;}
	.st56{fill:#F18738;}
	.st57{fill:#FF872A;}
	.st58{fill:#B1DBFF;}
	.st59{fill:#56A4E6;}
	.st60{fill:#3B89CC;}
	.st61{fill:#3584C1;}
	.st62{fill:#5EFF86;}
	.st63{fill:#53F375;}
	.st64{fill:#5AE76D;}
	.st65{fill:#49D65C;}
	.st66{fill:#4CE366;}
	.st67{fill:#73FF92;}
	.st68{fill:#FFFFFF;stroke:#C59A18;stroke-width:20;stroke-miterlimit:10;}
	.st69{fill:#7DFFAE;}
	.st70{fill:#028233;}
	.st71{fill:#006825;}
	.st72{fill:#AFFF1C;}
	.st73{fill:#A0E211;}
	.st74{fill:#9CC41B;}
	.st75{fill:#799B0C;}
	.st76{fill:#8CBC0D;}
	.st77{fill:#BEFF35;}
	.st78{fill:none;stroke:#F0F0FF;stroke-width:20;stroke-linecap:round;stroke-miterlimit:10;}
	.st79{fill:none;stroke:#000072;stroke-width:20;stroke-miterlimit:10;}
	.st80{opacity:0.77;fill:#AAFC0D;}
	.st81{fill:#9D9DC6;}
</style>
<g>
	<g>
		<path class="st51" d="M1122.14,1172.14h-1031c-27.61,0-50-22.39-50-50v-1031c0-27.61,22.39-50,50-50h1031c27.61,0,50,22.39,50,50
			v1031C1172.14,1149.75,1149.75,1172.14,1122.14,1172.14z"/>
		<path d="M896.79,820.39c-0.17-0.13-0.29-0.25-0.46-0.34c0.08,0,0.17-0.04,0.25-0.08C896.67,820.1,896.75,820.27,896.79,820.39z"/>
		<path d="M896.79,820.39c-0.17-0.13-0.29-0.25-0.46-0.34c0.08,0,0.17-0.04,0.25-0.08C896.67,820.1,896.75,820.27,896.79,820.39z"/>
		<path d="M681.73,687.94c0.04-0.04,0.08-0.08,0.08-0.13c0,0,0,0,0,0.08C681.77,687.94,681.73,687.94,681.73,687.94z"/>
		<path d="M681.85,687.82c0,0,0,0-0.04,0c0,0,0.04,0,0-0.04C681.81,687.77,681.81,687.82,681.85,687.82z"/>
	</g>
</g>
<g>
	<g>
		<g>
			<path class="st80" d="M409.46,718.72c11.2,12.55,20.25,26.57,20.14,43.01c-0.12,19.9-10.88,33.56-25.46,39.63
				c4.25,7.19,6.75,15.33,6.24,24.9c-1.43,27.16-24.7,40.51-48.21,38.48c-7.98,21.37-37.45,36.14-59.69,15.73
				c-16.4-15.01-32.76-30.02-49.13-45.08c-22.4-20.53-6.47-54.92,19.74-60.29c-7.03-8.42-13.22-17.51-18.07-27.48
				c-9.05-18.67-3.1-48.41,21.37-52.5c3.49-0.6,6.95-0.99,10.33-1.23c-6.27-6.63-12.55-13.3-18.82-19.94
				c-17.75-18.82-11.24-53.34,15.77-59.73c9.57-2.26,18.15-2.26,26.29-0.71c-4.05-8.54-7.39-17.43-10.01-26.61
				c-4.13-14.42,2.54-33.4,16.44-40.35c2.82-1.39,5.6-2.66,8.42-3.65c-1.55-5.32-2.9-10.76-4.01-16.2
				c-9.13-45,59.77-64.06,68.94-19.02c4.65,22.88,13.15,41.82,26.89,60.68c12.63,17.39,0.95,44.48-17.99,51.47
				c2.3,2.9,4.61,5.8,6.95,8.66c17.87,22,38.6,47.22,20.29,75.81C421.89,710.54,416.09,715.62,409.46,718.72z"/>
			<path class="st80" d="M980.73,789.92c-2.08,7.88-9.5,42.38-42.51,58.77c-21.31,10.58-41.26,7.8-47.42,6.86
				c-5.88-0.9-19.29-3.11-32.59-12.85c-23.01-16.85-25.22-41.22-24.65-43.37c0-0.02,0.01-0.04,0.02-0.06
				c0.87-3.12-0.31-6.41-2.98-8.25c-15.54-10.71-26.3-28.03-28.58-47.06c-2.02-16.77,2.77-33.17,12.87-45.18
				c2.72-3.24,2.32-8.08-1.03-10.67c-1.18-0.91-2.35-1.9-3.5-2.97c-5.8-5.39-17.62-22.84-13.39-35.38
				c2.75-8.15,9.74-7.45,25.83-18.22c23.95-16.03,22.19-26.77,35.96-29.63c19.78-4.1,40.57,14.33,43.37,24.61
				c1.15,4.21,1.52,8.26,1.17,12.1c-0.25,2.72,1.03,5.39,3.34,6.84c3.95,2.49,7.68,5.31,11.16,8.41
				c16.5,14.73,26.92,35.38,28.72,57.48c0.42,5.25,0.26,10.53-0.5,15.63c-0.52,3.48,1.4,6.83,4.68,8.11
				C973.3,743.91,987.96,762.5,980.73,789.92z"/>
			<path class="st3" d="M811.03,479.59c-25.28-9.19-58.77-4.35-69.16-2.77c-34.08,5.2-57.61,10.15-83.78,22.74
				c-9.21,4.43-16.95,8.66-18.44,15.99c-1.97,9.72,8.12,19.04,26.04,35.16c7.1,6.38,22.24,19.26,45.52,31.39
				c22.58,11.76,30.88,11.38,36.19,10.2c5.09-1.13,9.81-3.57,18.23-11c12.11-10.7,21.29-22.4,39.42-53.27
				c15.52-26.43,18.91-35.09,15.1-41.69C817.75,482.19,813.47,480.48,811.03,479.59z"/>
			<path class="st81" d="M786.93,527.58c-7.8,15.54-16.66,25.6-23.66,32.2c-13.22,12.46-20.34,13.1-22.62,13.19
				c-3.86,0.15-7.03-0.77-13.37-3.45c-18.17-7.7-29.94-16.01-29.94-16.01c-21.97-15.52-32.96-23.29-31.78-30.75
				c0.48-3.05,2.93-6.81,25.06-14.84c16.35-5.93,44.04-14.49,82.5-13.86c10.91,0.18,17.95,1.02,20.99,5.86
				C797.84,505.86,793.47,514.55,786.93,527.58z"/>
			<g>
				<g>
					<path d="M896.25,750.91c-0.17-0.13-0.29-0.25-0.46-0.34c0.08,0,0.17-0.04,0.25-0.08C896.13,750.61,896.21,750.78,896.25,750.91
						z"/>
					<path d="M896.25,750.91c-0.17-0.13-0.29-0.25-0.46-0.34c0.08,0,0.17-0.04,0.25-0.08C896.13,750.61,896.21,750.78,896.25,750.91
						z"/>
					<circle class="st3" cx="622.05" cy="467.41" r="21.41"/>
					<circle class="st3" cx="825.2" cy="450.69" r="16.71"/>
					<path d="M681.19,618.46c0.04-0.04,0.08-0.08,0.08-0.13c0,0,0,0,0,0.08C681.23,618.46,681.19,618.46,681.19,618.46z"/>
					<path d="M681.31,618.33c0,0,0,0-0.04,0c0,0,0.04,0,0-0.04C681.27,618.29,681.27,618.33,681.31,618.33z"/>
				</g>
				<path class="st5" d="M912.8,393.05c-3.04,31.37-16.45,127.34-95,205c-127.62,126.18-308.9,87.06-322,84"/>
				<path class="st5" d="M311.8,395.05c-11.92,27.82-27.88,66.73-45,114c-18.32,50.6-27.48,75.9-36,111
					c-11.92,49.12-24.77,102.35-14,168c9.66,58.86,30.46,84.49,36,91c9.25,10.87,26.23,30.27,55,38c44.44,11.95,82.08-13.35,89-18
					c16.09-10.81,37.82-31.23,54-79c36.2-106.87-1.59-229.69-16-271"/>
				<path class="st5" d="M896.8,562.05c45.02,42.67,67.11,86.27,78,113c14.81,36.36,42.44,103.55,12,156
					c-4.28,7.37-17.2,28.94-44,41c-27.66,12.44-53.44,7.24-59,6c-2.86-0.64-10.56-2.56-20-7c-31.4-14.77-47.89-42.4-56-56
					c-32.75-54.9-30.91-122.58-30-141"/>
			</g>
		</g>
		<path class="st5" d="M740.21,585.42c-2.85,7.64-6.92,12.27-10,15c-14.05,12.45-38.15,12.66-61,1"/>
	</g>
	<path class="st3" d="M381.86,746.59c-5.63-0.7-8.11-8.77-12.91-18.14c-3.23-6.31-8.45-15.04-16.96-24.68
		c0.71,4.26,1.43,10.56,1,18.15c-0.34,6.07-1.27,10.54-2.89,18c-5.16,23.78-5.37,22.92-5.69,25.51
		c-3.49,28.52,31.85,48.34,23.96,63.16c-0.28,0.52-2.06,3.88-4.83,4.1c-8.61,0.7-17.35-29.8-18.25-33.02
		c-2.62-9.34-3.68-17.2-4.16-22.17c-2.77,7.06-26.7,68.21-30.08,74.7c-2.84,5.46-10.73,0.11-7.92-5.28
		c10.2-19.64,18.78-40.08,25.6-61.14c1.1-3.46,2.17-6.9,3.17-10.37c-10.64,6.35-19.37,12.73-26.34,18.38
		c-14.88,12.07-22.58,21.53-28.45,19.03c-3-1.28-5.01-5.46-4.47-8.92c1.19-7.52,13.97-7.91,33.38-17.87
		c12.63-6.48,23.01-11.8,29.22-22.86c2.02-3.6,3.05-6.82,6.29-29.34c1.73-12.05,3.04-22.22,3.95-29.74
		c-6.56,1.46-15.33,4.27-24.14,10.2c-16.7,11.23-22.88,26.45-29.17,24.47c-3.21-1.01-5.38-6.14-4.85-10.39
		c1.21-9.68,16.64-15.85,35.74-23.49c12.68-5.07,17.3-5.62,21.07-11.1c4.03-5.86,3.56-12.23,2.93-22.39
		c-0.56-8.93-1.38-22.93-2.26-41.84c-38.19,35.91-49.38,42.26-51.72,40.22c-1.87-1.63,1.7-8.81,2.15-9.71
		c3.8-7.64,9.6-11.22,20.79-18.26c20.5-12.89,26.59-16.94,27.64-23.9c0.37-2.45-0.06-4.11-0.69-7.04c0,0-5.36-25.06-0.63-60.85
		c0.35-2.62,1.1-7.6,4.92-10.16c2.48-1.65,5.65-1.88,8.12-1.07c6.57,2.16,9.88,12.21,6.67,16.56c-1.67,2.27-5.49,3.49-7.52,2.11
		c-1.8-1.23-2.17-4.5-1.5-6.76c0.58-1.95,1.81-2.72,1.43-3.97c-0.35-1.14-1.87-2.07-2.99-1.85c-1.46,0.28-2.69,2.59-3.52,9.06
		c-4.75,37,6.73,62.31,6.73,62.31c2.07,4.56,4.63,10.14,9.45,16.7c15.89,21.66,36.91,27.66,34.98,34.98
		c-0.66,2.48-3.66,3.98-5.79,4.25c-6.22,0.8-11.28-8.02-19.44-18.6c-4.63-6-11.63-14.35-21.47-23.63c1.43,7.44,3.16,18.5,3.72,32.01
		c0.81,19.32-1.78,19.51-0.35,27.9c4.99,29.29,39.06,42.17,34.54,52.42C389.02,745.34,384.82,746.96,381.86,746.59z"/>
	<path class="st3" d="M954.24,777.83c-2.06,1.68-5.3,0.81-6.75,0.39c-9.06-2.59-12.73-11.3-19.71-17.6
		c-4.2-3.79-11.18-8.14-23.17-9.65c4.48,13.15,8.25,25.1,11.37,35.54c8.23,27.53,9.25,35.33,5.54,38.22
		c-2.8,2.18-8.03,1.38-10.7-1.15c-4.23-4.01-2.15-12.45-1.55-15.42c1.96-9.72,1.02-25.57-12.41-52.23
		c-13.08,17.4-16.76,31.9-17.62,42.16c-0.73,8.81,0.05,21.32-6.13,24.12c-1.98,0.89-5.21,1.04-7.2-0.6
		c-2.14-1.76-2.26-5.09-2.02-7.88c1.16-13.47,12.11-32.53,13.07-34.21c10.48-18.3,15.72-27.46,14.55-37.3
		c-1.5-12.65-10.73-15.36-19.4-38.33c-2.48-6.57-3.93-12.17-4.75-15.83c-12.11,22.4-17.47,38.42-20.09,49.35
		c-1.1,4.6-3.53,15.84-9.04,16.69c-2.06,0.32-4.6-0.81-5.85-2.71c-3.48-5.29,4.94-13.68,15.99-34.74
		c4.71-8.98,11.88-24.04,12.03-33.51c0.06-4.06,3.03-9.54,0.25-13.5c-3.21-4.58-9.55-2.66-11.48-6.37
		c-2.97-5.72,7.45-19.27,12.71-17.85c2.97,0.8,4.57,6.44,7.36,16.25c0.18,0.64,0.64,1.5,0.64,2.67c0,0,0.08,4.41,0.36,9.05
		c0.34,5.56,14.49,9.21,33.87,15.56c13.33,4.37,21.1,7.38,21.42,11.78c0.08,1.1-0.23,3.28-1.73,4.43c-1.68,1.29-4.18,0.76-6.12,0.14
		c-8.44-2.69-15.83-10.03-15.93-10.12c-4.64-4.6-12.91-9.78-28.83-11.23c1.57,4.93,4.02,11.94,7.72,20.05
		c7.56,16.56,12.24,26.82,22.16,34.76c4.91,3.92,3.53,1.23,31.07,14.62c12.03,5.85,21.14,10.67,22.02,17.82
		C956.04,771.97,956.54,775.95,954.24,777.83z"/>
</g>
</svg>
